<svg xmlns="http://www.w3.org/2000/svg" width="159.39" height="120.53" viewBox="0 0 159.39 120.53">
  <g id="Group_934" data-name="Group 934" opacity="0.62">
    <g id="Group_832" data-name="Group 832">
      <g id="Group_831" data-name="Group 831">
        <path id="Path_1031" data-name="Path 1031" d="M155.12,120.3s-.02-.76-.02-2.2-.01-3.59-.02-6.38c-.01-5.59-.03-13.78-.06-24.23-.03-20.87-.07-50.74-.11-86.78l.22.22C112.19.94,60.47.95,4.83.97H4.81L5.07.71c-.01,43.17-.01,83.98-.02,119.59l-.23-.23,108.58.12c13.21.03,23.63.05,30.76.06,3.56.01,6.3.02,8.15.03.92.01,1.62.01,2.1.01s.71.01.71.01-.23.01-.69.01-1.17.01-2.07.01c-1.85.01-4.57.02-8.11.03-7.11.01-17.52.04-30.7.06l-108.73.12H4.59v-.23C4.57,84.69,4.56,43.88,4.55.71V.45h.27c55.65.02,107.36.03,150.3.04h.22V.71c-.05,36.09-.09,66.01-.11,86.92-.02,10.42-.04,18.6-.06,24.18-.01,2.77-.02,4.9-.02,6.34S155.12,120.3,155.12,120.3Z" fill="#264361"/>
      </g>
    </g>
    <g id="Group_932" data-name="Group 932">
      <g id="Group_836" data-name="Group 836" transform="translate(0 6.23)">
        <g id="Group_835" data-name="Group 835" transform="translate(24.24 22.87)">
          <g id="Group_834" data-name="Group 834">
            <g id="Group_833" data-name="Group 833">
              <path id="Rectangle_293" data-name="Rectangle 293" d="M2.72,0h0A2.72,2.72,0,0,1,5.44,2.72V54.47a0,0,0,0,1,0,0H0a0,0,0,0,1,0,0V2.72A2.72,2.72,0,0,1,2.72,0Z" fill="#264361"/>
            </g>
          </g>
        </g>
      </g>
      <g id="Group_840" data-name="Group 840" transform="translate(0 -5.728)">
        <g id="Group_839" data-name="Group 839" transform="translate(34.74 43.49)">
          <g id="Group_838" data-name="Group 838">
            <g id="Group_837" data-name="Group 837">
              <path id="Rectangle_294" data-name="Rectangle 294" d="M2.72,0h0A2.72,2.72,0,0,1,5.44,2.72V45.808a0,0,0,0,1,0,0H0a0,0,0,0,1,0,0V2.72A2.72,2.72,0,0,1,2.72,0Z" fill="#264361"/>
            </g>
          </g>
        </g>
      </g>
      <g id="Group_844" data-name="Group 844" transform="translate(0 6.106)">
        <g id="Group_843" data-name="Group 843" transform="translate(45.23 30.42)">
          <g id="Group_842" data-name="Group 842">
            <g id="Group_841" data-name="Group 841">
              <path id="Rectangle_295" data-name="Rectangle 295" d="M2.72,0h0A2.72,2.72,0,0,1,5.44,2.72V47.354a0,0,0,0,1,0,0H0a0,0,0,0,1,0,0V2.72A2.72,2.72,0,0,1,2.72,0Z" fill="#264361"/>
            </g>
          </g>
        </g>
      </g>
      <g id="Group_848" data-name="Group 848" transform="translate(0 5.86)">
        <g id="Group_847" data-name="Group 847" transform="translate(55.72 25.22)">
          <g id="Group_846" data-name="Group 846">
            <g id="Group_845" data-name="Group 845">
              <path id="Rectangle_296" data-name="Rectangle 296" d="M2.72,0h0A2.72,2.72,0,0,1,5.44,2.72V52.5a0,0,0,0,1,0,0H0a0,0,0,0,1,0,0V2.72A2.72,2.72,0,0,1,2.72,0Z" fill="#264361"/>
            </g>
          </g>
        </g>
      </g>
      <g id="Group_852" data-name="Group 852" transform="translate(0 -6.958)">
        <g id="Group_851" data-name="Group 851" transform="translate(66.22 44.72)">
          <g id="Group_850" data-name="Group 850">
            <g id="Group_849" data-name="Group 849">
              <path id="Rectangle_297" data-name="Rectangle 297" d="M2.72,0h0A2.72,2.72,0,0,1,5.44,2.72V45.808a0,0,0,0,1,0,0H0a0,0,0,0,1,0,0V2.72A2.72,2.72,0,0,1,2.72,0Z" fill="#264361"/>
            </g>
          </g>
        </g>
      </g>
      <g id="Group_856" data-name="Group 856" transform="translate(0 -7.851)">
        <g id="Group_855" data-name="Group 855" transform="translate(76.71 52.34)">
          <g id="Group_854" data-name="Group 854">
            <g id="Group_853" data-name="Group 853">
              <path id="Rectangle_298" data-name="Rectangle 298" d="M2.72,0h0A2.72,2.72,0,0,1,5.44,2.72V39.081a0,0,0,0,1,0,0H0a0,0,0,0,1,0,0V2.72A2.72,2.72,0,0,1,2.72,0Z" fill="#264361"/>
            </g>
          </g>
        </g>
      </g>
      <g id="Group_860" data-name="Group 860" transform="translate(0 4.268)">
        <g id="Group_859" data-name="Group 859" transform="translate(87.2 29.1)">
          <g id="Group_858" data-name="Group 858">
            <g id="Group_857" data-name="Group 857">
              <path id="Rectangle_299" data-name="Rectangle 299" d="M2.72,0h0A2.72,2.72,0,0,1,5.44,2.72V50.2a0,0,0,0,1,0,0H0a0,0,0,0,1,0,0V2.72A2.72,2.72,0,0,1,2.72,0Z" fill="#264361"/>
            </g>
          </g>
        </g>
      </g>
      <g id="Group_864" data-name="Group 864" transform="translate(0 -5.552)">
        <g id="Group_863" data-name="Group 863" transform="translate(97.7 38.92)">
          <g id="Group_862" data-name="Group 862">
            <g id="Group_861" data-name="Group 861">
              <path id="Rectangle_300" data-name="Rectangle 300" d="M2.72,0h0A2.72,2.72,0,0,1,5.44,2.72V50.2a0,0,0,0,1,0,0H0a0,0,0,0,1,0,0V2.72A2.72,2.72,0,0,1,2.72,0Z" fill="#264361"/>
            </g>
          </g>
        </g>
      </g>
      <g id="Group_868" data-name="Group 868" transform="translate(0 8.055)">
        <g id="Group_867" data-name="Group 867" transform="translate(108.19 31.08)">
          <g id="Group_866" data-name="Group 866">
            <g id="Group_865" data-name="Group 865">
              <path id="Rectangle_301" data-name="Rectangle 301" d="M2.72,0h0A2.72,2.72,0,0,1,5.44,2.72V44.445a0,0,0,0,1,0,0H0a0,0,0,0,1,0,0V2.72A2.72,2.72,0,0,1,2.72,0Z" fill="#264361"/>
            </g>
          </g>
        </g>
      </g>
      <g id="Group_872" data-name="Group 872" transform="translate(0 -10.872)">
        <g id="Group_871" data-name="Group 871" transform="translate(118.68 47.81)">
          <g id="Group_870" data-name="Group 870">
            <g id="Group_869" data-name="Group 869">
              <path id="Rectangle_302" data-name="Rectangle 302" d="M2.72,0h0A2.72,2.72,0,0,1,5.44,2.72V46.632a0,0,0,0,1,0,0H0a0,0,0,0,1,0,0V2.72A2.72,2.72,0,0,1,2.72,0Z" fill="#264361"/>
            </g>
          </g>
        </g>
      </g>
      <g id="Group_876" data-name="Group 876" transform="translate(0 7.608)">
        <g id="Group_875" data-name="Group 875" transform="translate(129.17 41)">
          <g id="Group_874" data-name="Group 874">
            <g id="Group_873" data-name="Group 873">
              <path id="Rectangle_303" data-name="Rectangle 303" d="M2.72,0h0A2.72,2.72,0,0,1,5.44,2.72V34.962a0,0,0,0,1,0,0H0a0,0,0,0,1,0,0V2.72A2.72,2.72,0,0,1,2.72,0Z" fill="#264361"/>
            </g>
          </g>
        </g>
      </g>
      <g id="Group_881" data-name="Group 881">
        <g id="Group_880" data-name="Group 880">
          <g id="Group_879" data-name="Group 879">
            <g id="Group_878" data-name="Group 878">
              <g id="Group_877" data-name="Group 877">
                <path id="Path_1032" data-name="Path 1032" d="M136.83,87.8c0,.12-25.78.22-57.58.22s-57.58-.1-57.58-.22,25.78-.22,57.58-.22S136.83,87.68,136.83,87.8Z" fill="#264361"/>
              </g>
            </g>
          </g>
        </g>
      </g>
      <g id="Group_886" data-name="Group 886">
        <g id="Group_885" data-name="Group 885">
          <g id="Group_884" data-name="Group 884">
            <g id="Group_883" data-name="Group 883">
              <g id="Group_882" data-name="Group 882">
                <path id="Path_1033" data-name="Path 1033" d="M32,92.58a18.806,18.806,0,0,1-4.03.22,18.73,18.73,0,0,1-4.03-.22,18.806,18.806,0,0,1,4.03-.22A17.379,17.379,0,0,1,32,92.58Z" fill="#264361"/>
              </g>
            </g>
          </g>
        </g>
      </g>
      <g id="Group_891" data-name="Group 891">
        <g id="Group_890" data-name="Group 890">
          <g id="Group_889" data-name="Group 889">
            <g id="Group_888" data-name="Group 888">
              <g id="Group_887" data-name="Group 887">
                <path id="Path_1034" data-name="Path 1034" d="M45.38,92.82a26.775,26.775,0,0,1-4.82.22,26.775,26.775,0,0,1-4.82-.22,26.775,26.775,0,0,1,4.82-.22A26.775,26.775,0,0,1,45.38,92.82Z" fill="#264361"/>
              </g>
            </g>
          </g>
        </g>
      </g>
      <g id="Group_896" data-name="Group 896">
        <g id="Group_895" data-name="Group 895">
          <g id="Group_894" data-name="Group 894">
            <g id="Group_893" data-name="Group 893">
              <g id="Group_892" data-name="Group 892">
                <path id="Path_1035" data-name="Path 1035" d="M56.79,92.82a26.775,26.775,0,0,1-4.82.22,26.775,26.775,0,0,1-4.82-.22,26.775,26.775,0,0,1,4.82-.22A26.775,26.775,0,0,1,56.79,92.82Z" fill="#264361"/>
              </g>
            </g>
          </g>
        </g>
      </g>
      <g id="Group_901" data-name="Group 901">
        <g id="Group_900" data-name="Group 900">
          <g id="Group_899" data-name="Group 899">
            <g id="Group_898" data-name="Group 898">
              <g id="Group_897" data-name="Group 897">
                <path id="Path_1036" data-name="Path 1036" d="M68.2,92.82a26.775,26.775,0,0,1-4.82.22,26.775,26.775,0,0,1-4.82-.22,26.775,26.775,0,0,1,4.82-.22A26.775,26.775,0,0,1,68.2,92.82Z" fill="#264361"/>
              </g>
            </g>
          </g>
        </g>
      </g>
      <g id="Group_906" data-name="Group 906">
        <g id="Group_905" data-name="Group 905">
          <g id="Group_904" data-name="Group 904">
            <g id="Group_903" data-name="Group 903">
              <g id="Group_902" data-name="Group 902">
                <path id="Path_1037" data-name="Path 1037" d="M79.61,92.82a26.775,26.775,0,0,1-4.82.22,26.775,26.775,0,0,1-4.82-.22,26.775,26.775,0,0,1,4.82-.22A26.775,26.775,0,0,1,79.61,92.82Z" fill="#264361"/>
              </g>
            </g>
          </g>
        </g>
      </g>
      <g id="Group_911" data-name="Group 911">
        <g id="Group_910" data-name="Group 910">
          <g id="Group_909" data-name="Group 909">
            <g id="Group_908" data-name="Group 908">
              <g id="Group_907" data-name="Group 907">
                <path id="Path_1038" data-name="Path 1038" d="M91.02,92.82a26.775,26.775,0,0,1-4.82.22,26.775,26.775,0,0,1-4.82-.22,26.775,26.775,0,0,1,4.82-.22A26.775,26.775,0,0,1,91.02,92.82Z" fill="#264361"/>
              </g>
            </g>
          </g>
        </g>
      </g>
      <g id="Group_916" data-name="Group 916">
        <g id="Group_915" data-name="Group 915">
          <g id="Group_914" data-name="Group 914">
            <g id="Group_913" data-name="Group 913">
              <g id="Group_912" data-name="Group 912">
                <path id="Path_1039" data-name="Path 1039" d="M102.43,92.82a26.775,26.775,0,0,1-4.82.22,26.775,26.775,0,0,1-4.82-.22,26.775,26.775,0,0,1,4.82-.22A26.684,26.684,0,0,1,102.43,92.82Z" fill="#264361"/>
              </g>
            </g>
          </g>
        </g>
      </g>
      <g id="Group_921" data-name="Group 921">
        <g id="Group_920" data-name="Group 920">
          <g id="Group_919" data-name="Group 919">
            <g id="Group_918" data-name="Group 918">
              <g id="Group_917" data-name="Group 917">
                <path id="Path_1040" data-name="Path 1040" d="M113.85,92.82a26.775,26.775,0,0,1-4.82.22,26.775,26.775,0,0,1-4.82-.22,26.775,26.775,0,0,1,4.82-.22A26.775,26.775,0,0,1,113.85,92.82Z" fill="#264361"/>
              </g>
            </g>
          </g>
        </g>
      </g>
      <g id="Group_926" data-name="Group 926">
        <g id="Group_925" data-name="Group 925">
          <g id="Group_924" data-name="Group 924">
            <g id="Group_923" data-name="Group 923">
              <g id="Group_922" data-name="Group 922">
                <path id="Path_1041" data-name="Path 1041" d="M125.26,92.82a26.775,26.775,0,0,1-4.82.22,26.775,26.775,0,0,1-4.82-.22,26.775,26.775,0,0,1,4.82-.22A26.775,26.775,0,0,1,125.26,92.82Z" fill="#264361"/>
              </g>
            </g>
          </g>
        </g>
      </g>
      <g id="Group_931" data-name="Group 931">
        <g id="Group_930" data-name="Group 930">
          <g id="Group_929" data-name="Group 929">
            <g id="Group_928" data-name="Group 928">
              <g id="Group_927" data-name="Group 927">
                <path id="Path_1042" data-name="Path 1042" d="M136.67,92.82a26.775,26.775,0,0,1-4.82.22,26.775,26.775,0,0,1-4.82-.22,26.775,26.775,0,0,1,4.82-.22A26.775,26.775,0,0,1,136.67,92.82Z" fill="#264361"/>
              </g>
            </g>
          </g>
        </g>
      </g>
    </g>
    <g id="Group_933" data-name="Group 933">
      <rect id="Rectangle_304" data-name="Rectangle 304" width="159.39" height="4.49" fill="#264361"/>
    </g>
  </g>
</svg>
