<svg xmlns="http://www.w3.org/2000/svg" width="98.69" height="264.468" viewBox="0 0 98.69 264.468">
  <g id="Group_535" data-name="Group 535" transform="translate(71 0.437)">
    <g id="Group_527" data-name="Group 527" transform="translate(-71 151)">
      <path id="Path_970" data-name="Path 970" d="M43.68,75.02,0,89.69H98.69L57.68,75.02Z" fill="#8f8f8f"/>
    </g>
    <path id="Path_971" data-name="Path 971" d="M55.94,88.69a24.217,24.217,0,0,0-.33,2.58,12.868,12.868,0,0,0,1.63,6.78c.68,1.33,1.56,2.74,2.25,4.4a9.7,9.7,0,0,1,.58,5.67,10.2,10.2,0,0,1-3.08,5.5,9.386,9.386,0,0,1-6.3,2.41,9.936,9.936,0,0,1-6.39-2.18,9.983,9.983,0,0,1-2.84-11.09,18.868,18.868,0,0,1,2.62-4.22,16.691,16.691,0,0,0,2.14-3.4,7.748,7.748,0,0,0,.69-2.92,5.706,5.706,0,0,0-.58-2.49,2.163,2.163,0,0,1,.36.58,4.895,4.895,0,0,1,.43,1.91,7.91,7.91,0,0,1-.62,3.04,16.781,16.781,0,0,1-2.11,3.5,18.71,18.71,0,0,0-2.52,4.15,9.363,9.363,0,0,0-.34,5.43,9.232,9.232,0,0,0,3.1,5.11,9.422,9.422,0,0,0,6.06,2.06,8.906,8.906,0,0,0,5.96-2.26,9.782,9.782,0,0,0,2.95-5.22,9.242,9.242,0,0,0-.51-5.42c-.65-1.62-1.51-3.04-2.18-4.4a12.734,12.734,0,0,1-1.5-6.96,10.432,10.432,0,0,1,.32-1.92A2.7,2.7,0,0,1,55.94,88.69Z" transform="translate(-72 148)" fill="#8f8f8f"/>
    <path id="Path_972" data-name="Path 972" d="M52.33,89.62a15.388,15.388,0,0,1-.27,1.84,47.958,47.958,0,0,0-.5,5.01,39.725,39.725,0,0,0,.33,7.42,1.658,1.658,0,0,0,.4.83.8.8,0,0,0,.76.27c.54-.12.82-.94.72-1.58a3.116,3.116,0,0,0-6.15-.09,1.4,1.4,0,0,0,.82,1.57,1.229,1.229,0,0,0,1.42-.83,5.9,5.9,0,0,0,.33-1.94c.05-.66.07-1.31.08-1.93a34.162,34.162,0,0,0-.14-3.47,34.891,34.891,0,0,0-.84-4.96c-.28-1.16-.48-1.79-.44-1.8a1.8,1.8,0,0,1,.2.44c.11.29.26.73.44,1.31a29.724,29.724,0,0,1,1.01,4.97,33.817,33.817,0,0,1,.21,3.51c0,.63-.02,1.29-.06,1.96a6.519,6.519,0,0,1-.35,2.11,2.047,2.047,0,0,1-.76.92,1.461,1.461,0,0,1-1.26.18,1.9,1.9,0,0,1-1.17-2.1,3.669,3.669,0,0,1,3.61-3.03,3.707,3.707,0,0,1,3.55,3.11,2.313,2.313,0,0,1-.16,1.25,1.429,1.429,0,0,1-.96.89,1.318,1.318,0,0,1-1.22-.42,2.146,2.146,0,0,1-.52-1.07,38.773,38.773,0,0,1,.44-12.57c.12-.59.23-1.04.31-1.34A2.255,2.255,0,0,1,52.33,89.62Z" transform="translate(-72 148)" fill="#8f8f8f"/>
    <g id="Group_533" data-name="Group 533" transform="translate(-72 -0.437)">
      <g id="Group_532" data-name="Group 532" transform="translate(50.43)">
        <path id="Path_973" data-name="Path 973" d="M51.641,0a6.737,6.737,0,0,1,.233,2.261c.047,1.628.14,3.8.233,6.513.093,5.819.233,13.961.373,23.941.093,20.383.233,48.245.373,79.031-.14,30.786-.28,58.677-.373,79.031-.14,9.981-.28,18.122-.373,23.941-.093,2.714-.186,4.885-.233,6.513a8.751,8.751,0,0,1-.233,2.261,6.738,6.738,0,0,1-.233-2.261c-.047-1.628-.14-3.8-.233-6.513-.093-5.819-.233-13.961-.373-23.941-.093-20.383-.233-48.245-.373-79.031.14-30.786.28-58.647.373-79.031.14-9.981.28-18.122.373-23.941.093-2.714.186-4.885.233-6.513A8.751,8.751,0,0,1,51.641,0Z" transform="translate(-50.43)" fill="#8f8f8f"/>
      </g>
    </g>
    <g id="Group_534" data-name="Group 534" transform="translate(-71 151)">
      <path id="Path_974" data-name="Path 974" d="M43.68,75.02l2.71-12.13h9l2.29,12.13Z" fill="#8f8f8f"/>
    </g>
  </g>
</svg>
