<svg xmlns="http://www.w3.org/2000/svg" width="993.663" height="998.478" viewBox="0 0 993.663 998.478">
  <path id="Path_117" data-name="Path 117" d="M1115.579,515.422a378.959,378.959,0,0,1-38.122,166.021q-6.338,13.077-13.637,25.6a393.638,393.638,0,0,1-77.742,95.177q-2.82,2.519-5.682,4.985c-.723.62-1.436,1.24-2.159,1.86q-4.51,3.817-9.122,7.517c-.971.775-1.942,1.537-2.913,2.3-.827.659-1.663,1.3-2.5,1.95q-13.436,10.384-27.791,19.645c-1.043.672-2.1,1.343-3.151,2.015-.909.568-1.818,1.149-2.738,1.718-.641.4-1.291.8-1.932,1.188-1.074.672-2.159,1.33-3.244,1.976q-4.23,2.538-8.523,4.973c-1.312.749-2.635,1.5-3.967,2.221a.074.074,0,0,1-.041.026c-1.322.736-2.645,1.459-3.978,2.17-1.219.659-2.448,1.317-3.678,1.95q-5.548,2.925-11.189,5.657c-.775.387-1.56.762-2.345,1.137-1.085.517-2.159,1.033-3.254,1.537-1.395.646-2.779,1.292-4.174,1.924-1.3.594-2.6,1.175-3.915,1.757l-.279.116c-1.312.581-2.624,1.149-3.946,1.7q-10.2,4.378-20.693,8.189c-.878.323-1.756.633-2.634.943-.393.155-.8.3-1.2.426-1.023.362-2.045.723-3.079,1.072-1.26.452-2.531.878-3.812,1.292q-5.346,1.782-10.744,3.41c-1.219.375-2.428.736-3.647,1.085a.128.128,0,0,1-.072.026l-3.657,1.046c-1.7.491-3.43.969-5.155,1.408-1.994.542-4,1.059-6.013,1.576-1.25.31-2.5.62-3.75.917s-2.51.607-3.76.891q-9.437,2.189-19.03,3.939c-2.376.426-4.752.84-7.149,1.24-1.467.245-2.944.478-4.422.7-1.291.194-2.593.387-3.884.568s-2.583.362-3.885.542h-.01a3.665,3.665,0,0,1-.372.052c-2.118.284-4.246.542-6.374.8-1.25.155-2.5.284-3.761.413-1.126.129-2.262.245-3.4.349q-5.1.523-10.228.891-1.658.135-3.316.232c-2.356.168-4.711.3-7.077.413-.982.052-1.973.1-2.955.142-2.645.116-5.3.194-7.955.258q-2.247.058-4.494.078-2.665.039-5.331.039c-85.965,0-184.772-36.81-266.16-90.321a564.346,564.346,0,0,1-59.269-44.65c-11.013-9.519-21.406-19.309-31.055-29.332-71.915-74.525-103.042-160.4-45.395-225.757q11.158-12.651,24.04-26.336,9.747-10.365,20.352-21.26c100.7-103.4,255.033-239.048,357.487-342.465C886.393-48.952,1115.579,300,1115.579,515.422Z" transform="translate(818.875 -292.198) rotate(77)" fill="#87bee2" opacity="0.393"/>
</svg>
