<svg xmlns="http://www.w3.org/2000/svg" width="536.585" height="388.31" viewBox="0 0 536.585 388.31">
  <g id="Group_505" data-name="Group 505" transform="translate(0 -278.69)">
    <g id="Group_494" data-name="Group 494" transform="translate(0 278.69)">
      <g id="Group_479" data-name="Group 479" transform="translate(122.814 73.409)">
        <g id="Group_565" data-name="Group 565" transform="translate(158.92 102.899)">
          <g id="Group_558" data-name="Group 558">
            <g id="Group_556" data-name="Group 556">
              <rect id="Rectangle_282" data-name="Rectangle 282" width="56.97" height="8.51" transform="translate(3.42 17.03)" fill="#263238"/>
            </g>
            <g id="Group_557" data-name="Group 557">
              <rect id="Rectangle_283" data-name="Rectangle 283" width="15.06" height="4.58" transform="translate(3.42 18.99)" fill="#e0e0e0"/>
            </g>
          </g>
          <g id="Group_561" data-name="Group 561">
            <g id="Group_559" data-name="Group 559">
              <rect id="Rectangle_284" data-name="Rectangle 284" width="56.97" height="8.51" transform="translate(8.51 8.51)" fill="#e8505b"/>
            </g>
            <g id="Group_560" data-name="Group 560">
              <rect id="Rectangle_285" data-name="Rectangle 285" width="38.64" height="4.26" transform="translate(26.84 10.56)" fill="#e0e0e0"/>
            </g>
          </g>
          <g id="Group_564" data-name="Group 564">
            <g id="Group_562" data-name="Group 562">
              <rect id="Rectangle_286" data-name="Rectangle 286" width="56.97" height="8.51" transform="translate(56.971 8.513) rotate(180)" fill="#263238"/>
            </g>
            <g id="Group_563" data-name="Group 563">
              <rect id="Rectangle_287" data-name="Rectangle 287" width="15.06" height="4.58" transform="translate(56.97 6.553) rotate(180)" fill="#e0e0e0"/>
            </g>
          </g>
        </g>
        <g id="Group_478" data-name="Group 478" transform="translate(8.122 189.201)">
          <g id="Group_477" data-name="Group 477" transform="translate(0 18.481)">
            <path id="Path_836" data-name="Path 836" d="M353.507,385.5l-1.261-.476a2.835,2.835,0,0,1-1.675-3.64l23.557-63.64a2.835,2.835,0,0,1,3.64-1.675l1.262.476a2.835,2.835,0,0,1,1.675,3.64l-23.557,63.64A2.851,2.851,0,0,1,353.507,385.5Z" transform="translate(-350.396 -315.896)" fill="#4a608d"/>
            <path id="Path_837" data-name="Path 837" d="M405.7,385.5l1.262-.476a2.835,2.835,0,0,0,1.675-3.64l-23.557-63.64a2.835,2.835,0,0,0-3.64-1.675l-1.262.476a2.835,2.835,0,0,0-1.675,3.64l23.557,63.64A2.843,2.843,0,0,0,405.7,385.5Z" transform="translate(-320.56 -315.896)" fill="#4a608d"/>
          </g>
          <path id="Path_838" data-name="Path 838" d="M423.439,327.953H361.02a8.5,8.5,0,0,1-8.48-8.48V315.44a8.5,8.5,0,0,1,8.48-8.48h62.419a8.5,8.5,0,0,1,8.48,8.48v4.033A8.5,8.5,0,0,1,423.439,327.953Z" transform="translate(-348.105 -306.96)" fill="#4a608d"/>
        </g>
        <path id="Path_839" data-name="Path 839" d="M384.221,336.08l-3.661,16.98,12.244,1.448,3.5-16.732Z" transform="translate(-310.05 -86.651)" fill="#ffd7ae"/>
        <path id="Path_840" data-name="Path 840" d="M395.87,225.243c-4.24.434-15.677,1.779-25.357,10.238-3.268,2.854-5.357,4.757-6.039,7.983-1.468,7.094,5.357,14.581,11.458,17.973a17.358,17.358,0,0,1-.1,3.371,12.334,12.334,0,0,1-.331,1.7c-.124.538-.248,1.1-.372,1.593a12.425,12.425,0,0,0,.579,2.854,10.754,10.754,0,0,0,4.612,6.143,11.02,11.02,0,0,0,12.926-1.055,11.536,11.536,0,0,0,3.578-8.542,3.74,3.74,0,0,1-2.006-1.013,2.443,2.443,0,0,1-.455-.579,2.916,2.916,0,0,1-.62-1.758,8.14,8.14,0,0,0,2.751-1.468c2.833-2.461,5.688-4.922,8.521-7.384.207-4.943.517-9.969.993-15.077.062-.683.124-1.344.186-2.027.248-4.323.5-8.625.745-12.947A51.768,51.768,0,0,0,395.87,225.243Z" transform="translate(-327.449 -205.369)" fill="#ffd7ae"/>
        <path id="Path_841" data-name="Path 841" d="M395.85,333.12l-3.64,16.98,12.244,1.448,3.475-16.711Z" transform="translate(-297.605 -89.813)" fill="#ffd7ae"/>
        <path id="Path_842" data-name="Path 842" d="M423.646,294.574h28.418s17.311-.972,18.345,13.237-25.4,54.85-29.514,76.546c-1.158-.1-2.316-.186-3.454-.29q-10.145-.838-20.31-1.675,8.563-29.5,17.125-59.028l-42.564.248a27.677,27.677,0,0,1-9.266-1.468c-8.294-2.875-20.931-6.991-14.043-29.824Z" transform="translate(-325.174 -133.398)" fill="#114e61"/>
        <path id="Path_843" data-name="Path 843" d="M428.21,386.963,404.446,385l19.069-61.634-42.564.248a27.8,27.8,0,0,1-9.286-1.468c-.227-.083-.434-.165-.662-.227-8.087-2.813-19.545-7.177-13.775-28.149.124-.476.269-.951.434-1.448l16.008.662,39.276,1.593h28.418s17.29-.972,18.345,13.237C460.7,322.02,432.347,365.267,428.21,386.963Z" transform="translate(-336.646 -133.397)" fill="#145d74"/>
        <path id="Path_844" data-name="Path 844" d="M419.755,274.968l-.021.227-3.5,40.765q-21.624,0-43.268-.021l-16.091-.807-.91-.041,9.886-25.377.393-1.013,6.639-16.4,44.839,2.544Z" transform="translate(-336.318 -154.784)" fill="#1ed6e3"/>
        <path id="Path_845" data-name="Path 845" d="M449.565,280.392c-.227-2.275-3.95-4.488-5.377-6a10.74,10.74,0,0,0-3.661-2.627,23.3,23.3,0,0,0-6.37-2.213c-3-.476-6.06.786-9,1.241-3.02.455-6.308-.29-8.273,2.647-1.448,2.192-1.075,6.287,1.758,6.97.993.227,1.9-.165,2.937.1,1.531.393,2.523,1.572,4.2,1.758,3.289.352,6.039-2.13,9.245-2.006a8.822,8.822,0,0,1,4.24,1.675,10.732,10.732,0,0,0,5.067,1.882c1.241.083,4.012.352,5.067-.414C450.372,282.667,449.855,281.323,449.565,280.392Z" transform="translate(-272.127 -157.829)" fill="#ffd7ae"/>
        <path id="Path_846" data-name="Path 846" d="M405.543,285.435a15.423,15.423,0,0,1,4.571-.352c.7-.021,1.489.248,2.068-.434-2.9-3.02-6.722-3.433-10.548-3.7-6.184-.434-12.451-.29-18.573-1.344-5.212-.889-10.507-1.861-14.767-5.522a19.267,19.267,0,0,1-5.6-8.831c-.124-.372-.062-.869-.6-.889-.083,0-.165.579-.269.889,0,2.73.993,5.295,1.406,7.963.145.91-.021,6.432,2.172,7.2a37.067,37.067,0,0,0,4.8.91c4.612.869,9.307,1.22,13.837,2.44A5.469,5.469,0,0,1,386.556,285c2.958.29,5.667-.972,8.521-1.344C398.862,283.2,402.358,283.119,405.543,285.435Z" transform="translate(-330.069 -163.266)" fill="#1ed6e3"/>
        <path id="Path_847" data-name="Path 847" d="M370.812,247.38c-.29-.062-.621-.1-.951-.145a11.462,11.462,0,0,0-1.841-.062c.124.6.31,1.468.6,2.5.662,2.4,1.055,4.136,2.192,5.667,3.371,4.529,8.066,5.708,13.588,5.026a10.473,10.473,0,0,0,6.184-2.565,13.075,13.075,0,0,0,2.068-3.123c1.117-1.923,1.655-2.9,1.7-4.033a5.6,5.6,0,0,0-1.572-3.868,5.345,5.345,0,0,0-1.344,1.53,4.818,4.818,0,0,0-.517,1.22c-1.386,5.067-3.764,6.867-9.121,6.887-2.068,0-4.074.021-5.977-1.1a7.072,7.072,0,0,1-3.185-3.185c-.31-.683-.207-.931-.414-2.73-.269-2.11-.786-5.088-1.1-5.067C371.019,244.361,370.874,244.878,370.812,247.38Z" transform="translate(-323.446 -184.652)" fill="#1ed6e3"/>
        <path id="Path_848" data-name="Path 848" d="M434.82,290.412c-.972,1.551-1.9,3.164-2.854,4.736-.041.021-.062.041-.1.041a2.816,2.816,0,0,0-.765.6s-.041.021-.041.041a3.329,3.329,0,0,0-.7,1.489,24.543,24.543,0,0,0-.745,5.626,4.091,4.091,0,0,1-.021.869v.021l-.062.434c0,.021,0,.021-.021,0a1.227,1.227,0,0,1-1.179.848,4.05,4.05,0,0,1-1.944-1.1,10.751,10.751,0,0,0-2.73-1.427c-.041-.021-.083-.021-.124-.041a13.85,13.85,0,0,0-1.882-.434c-.041,0-.083-.021-.124-.021a77.39,77.39,0,0,0-9.493-.827,84.3,84.3,0,0,1-18.511-2.151c-5.812-1.448-10.713-4.116-13.609-9.679-.414-.765-.641-1.634-1.034-2.42a4.381,4.381,0,0,0-.972-1.344,1.9,1.9,0,0,0-.745.269,2.81,2.81,0,0,0-.993,1.034c-1.944,3.061-4.1,5.957-6.184,8.935-1.013,1.489-.869,1.944.972,2.3,2.358.434,4.736.662,7.073,1.2,1.179.269,4.922.951,7.4,1.324.352.041.682.1,1.034.165,4.385.786,8.852,1.138,13.154,2.3,1.179.31,2.647.31,3.061,1.923-2.3-.186-4.323.227-5.191,2.627a5.308,5.308,0,0,0,1.055,5.6,3.305,3.305,0,0,1-2.647.848c-1.675-.165-3.392-.186-5.109-.434-3.475-.5-6.991-.041-10.445-.5-8.831-1.137-17.684-1.448-26.536-1.944-4.984-.269-8.438-5.005-6.6-9.638.393-.993.745-1.986,1.117-3a28.964,28.964,0,0,1,3.661-7.549c1.51-2.9,3.02-5.77,4.529-8.666.31-.662.807-1.779,1.448-3.123A149.475,149.475,0,0,1,371.222,256.6c4.881-6.929,6.308-7.8,7.073-8.232,4.3-2.3,10.548-2.523,12.575-2.523.393,0,.641.021.662.021.331,0,.6.021.827.041a10.442,10.442,0,0,0-.165,3.909,11.912,11.912,0,0,0,.5,1.861,10.544,10.544,0,0,0,4.674,5.191c2.9,1.758,6.2,2.048,9.7,1.758a10.189,10.189,0,0,0,7.466-4.612,10.8,10.8,0,0,0,1.034-8.521c3.847.848,7.673,1.675,11.5,2.544a38.786,38.786,0,0,0,.538,6.887c1.675,9.886,5.191,11.892,7.942,21.344C436.95,281.022,437.695,285.862,434.82,290.412Z" transform="translate(-346.213 -183.423)" fill="#1ed6e3"/>
        <path id="Path_849" data-name="Path 849" d="M404.352,283.885a.887.887,0,0,0-.1-.331c-1.013-2.213-3.164-3.392-4.736-5.088-.6-.662-1.241-1.3-1.841-1.985.021,0-6.763-3.93-10.61-3.537-3.206.31-6.287,1.51-9.535,1.551-.807.062-1.613,0-2.4.124a5.3,5.3,0,0,0-4.178,4.012,4.921,4.921,0,0,0,2.027,5.274l.931-.062.124.124a.869.869,0,0,0,1.055-.062,3.3,3.3,0,0,1,2.11.434c2.337,1.8,4.881,1.7,7.508.765,1.1-.393,2.213-.745,3.309-1.137,2.709-.91,4.9.662,6.867,1.923,2.813,1.8,5.729,1.448,8.6,1.158C405.3,286.884,404.766,285.168,404.352,283.885Z" transform="translate(-320.44 -154.125)" fill="#ffd7ae"/>
        <path id="Path_850" data-name="Path 850" d="M388.12,303" transform="translate(-301.974 -121.989)" fill="#1f3041"/>
        <path id="Path_851" data-name="Path 851" d="M455.145,294.992q-1.955,4.84-3.93,9.638c-25.212-.186-50.155-.041-50.817-.062a4.669,4.669,0,0,1-.931-.021c-3.082-2.4-7.694-7.963-9.535-10.176-.434-.558-.724-.889-.745-.91a.568.568,0,0,1,.041-.269,6.725,6.725,0,0,1,1.448-3.02,13.542,13.542,0,0,0,2.668-7.59,29.1,29.1,0,0,0-.145-3,49.7,49.7,0,0,0-4.488-14.891c.083-1.758-2.068-5.667-2.068-5.667-1.365-2.482-1.365-4.984-1.365-7.425a19.466,19.466,0,0,1,.641-4.86,26.763,26.763,0,0,1,8.087,7.342c3.64,5.088,4.012,9.659,5.75,15.967a80.509,80.509,0,0,0,7.446,17.973Q431.154,291.528,455.145,294.992Z" transform="translate(-305.008 -182.088)" fill="#1ed6e3"/>
        <path id="Path_852" data-name="Path 852" d="M391.357,249.661c-3.433,1.531-8.521.62-12.244,1.7-13.382,3.888-9.307,34.581-28.935,46.018a20.988,20.988,0,0,1-2.42,1.241,1.163,1.163,0,0,1-.248-.083,28.965,28.965,0,0,1,3.661-7.549c1.51-2.9,3.02-5.77,4.529-8.666.31-.662.807-1.779,1.448-3.123a149.458,149.458,0,0,1,13.257-22.751c4.881-6.929,6.308-7.8,7.073-8.232,4.3-2.3,10.548-2.523,12.575-2.523.393,0,.641.021.662.021.331,0,.6.021.827.041A9.958,9.958,0,0,0,391.357,249.661Z" transform="translate(-345.356 -183.21)" fill="#21103e" opacity="0.15"/>
        <path id="Path_853" data-name="Path 853" d="M356.25,233.37" transform="translate(-336.019 -196.37)" fill="#959af6"/>
        <path id="Path_854" data-name="Path 854" d="M394.342,270.368c-.021.041-.041.062-.041.1,0,0-.041.021-.041.041a3.329,3.329,0,0,0-.7,1.489,24.552,24.552,0,0,0-.745,5.626,4.088,4.088,0,0,1-.021.869v.021l-.062.434c0,.021,0,.021-.021,0a.81.81,0,0,1-.724,0,18.878,18.878,0,0,0-5.129-1.675c-.041-.021-.083-.021-.124-.041-.662-.145-1.344-.269-1.986-.434-.352-.1-.7-.186-1.055-.29a9.157,9.157,0,0,1-1.737-.745,1.319,1.319,0,0,1-.7-1.592,1.944,1.944,0,0,1,1.055-1.013c1.2-.331,2.44-.5,3.661-.786a39.112,39.112,0,0,0,7.611-3.164.568.568,0,0,0-.041.269A4.72,4.72,0,0,1,394.342,270.368Z" transform="translate(-309.396 -158.085)" fill="#21103e" opacity="0.56"/>
        <path id="Path_855" data-name="Path 855" d="M376.215,297.274a85.067,85.067,0,0,0-2.565,9.286c-.124.517-.227,1.055-.331,1.592-1.841,9.2-2.192,19.235.889,27.239-1.138.083-2.192.124-3.226.124-8.087-2.813-19.545-7.177-13.775-28.149l-.91-.041,9.886-25.377C376.277,274.358,387.57,286.768,376.215,297.274Z" transform="translate(-336.667 -146.976)" fill="#21103e" opacity="0.15"/>
        <path id="Path_856" data-name="Path 856" d="M437.557,271.156c-.931-1.985-1.8-3.723-1.8-3.723-1.7-3.164-2.771-4.343-4.033-7.839-1.841-5.191,1.923-8.914,3.144-13.588,1.117-4.364.248-10.755-3.185-13.774-3.661-3.226-8.376-2.13-11.644-6.391-3.247-4.24-4.405-7.921-9.907-9.514-10.507-3-22.792,2.3-29.452,10.713a20.076,20.076,0,0,0-4.509,9.721c-.869,5.708-.29,9.617-5.109,13.361-6.763,5.274-18.7,5.419-15.8,17.29,1.531,6.329.641,8.273-3.164,13.361-2.565,3.433-5.522,8.17-5.626,12.43a20.383,20.383,0,0,0,5.46,13.671,13.474,13.474,0,0,0,5.088,3.1,14.719,14.719,0,0,0,10.01-.538c9.948-4.405,5.4-23.123,14.705-27.156,4.55-1.986,8.356,1.241,11.21-1.841a9.254,9.254,0,0,0,1.985-5.5,49.572,49.572,0,0,0,.1-5.564,33.634,33.634,0,0,0-.434-4.84v-.021c-.041-.186-.041-.352-.083-.5-1.51-.662-2.751-1.055-3.557-1.406-2.854-1.2-3.475-1.655-3.992-2.172a8.064,8.064,0,0,1-1.675-2.813c-1.7-4.86,1.593-11.189,6.474-9.555,1.572.517,3.392,3.247,4.9,3.392,1.53.145,5.75-2.833,7.363-3.5,6.35-2.606,13.692-5.336,17.932-11.21-.145,2.068,2.565,7.446,2.771,10.838a1.363,1.363,0,0,0,.021.228c.083,1.593.951,17.5-7.177,22.751-.972.62-2.068,1.1-2.937,1.593-1.013.558-1.779,1.179-1.882,2.13a2.385,2.385,0,0,0,.393,1.489c.145.227.248.393.372.558a3.763,3.763,0,0,0,.372.393c2.544,2.461,7.591,3.288,7.591,3.288,7.342,1.22,8.273,15.925,16.67,17.291.434.062,3.868.579,5.667-1.344C447.505,292.066,441.88,280.215,437.557,271.156Z" transform="translate(-346.468 -215.481)" fill="#341338"/>
        <path id="Path_857" data-name="Path 857" d="M387.879,249a2.386,2.386,0,0,0,.393,1.489c-1.655.269-3.185,1.158-4.922,1.179-3.909,0-7.777-.124-11.417-1.7a3.967,3.967,0,0,0-1.882-.352,49.587,49.587,0,0,0,.1-5.564,33.634,33.634,0,0,0-.434-4.84,4.131,4.131,0,0,1,2.192,1.158c3.93,5.109,9.514,6.225,15.512,6.349a14.18,14.18,0,0,1,2.11.083c.083.021.165.041.227.062C388.727,247.431,387.962,248.051,387.879,249Z" transform="translate(-321.63 -190.121)" fill="#ecc7a1"/>
        <path id="Path_858" data-name="Path 858" d="M380.7,218.94c-1.324,1.593-3.289,2.11-4.84,3.371a16.5,16.5,0,0,0-4.137,5.109c-1.075,2.027-1.655,4.281-2.585,6.391-.972,2.234-2.11,4.385-3.226,6.536-.5.951-2.9,4.778-4.219,3.95-1.1-.683.186-1.841.6-2.482.6-.931,1.076-1.923,1.634-2.875,2.482-4.178,3.95-8.769,5.977-13.154a12.555,12.555,0,0,1,4.592-5.46A7.5,7.5,0,0,1,380.7,218.94Z" transform="translate(-330.666 -211.93)" fill="#1a091c"/>
        <path id="Path_859" data-name="Path 859" d="M353.07,247.164a16.09,16.09,0,0,1,3.992-5.191c2.006-1.572,4.3-1.737,6.68-2.42,2.42-.7,5.088-1.531,7.011-3.226a21.224,21.224,0,0,0,2.73-3.04c.434-.558.931-1.737,1.8-1.22,1.675,1.034-2.441,4.984-3.206,5.708a18.948,18.948,0,0,1-6.846,3.681c-2.461.827-4.922,1.034-7.156,2.461C356.545,244.91,355.055,247.64,353.07,247.164Z" transform="translate(-339.416 -197.9)" fill="#1a091c"/>
        <path id="Path_860" data-name="Path 860" d="M384.959,224.494c-1.055,4.054-1.986,8.48-5.336,11.355a16.662,16.662,0,0,1-3.082,1.986,15.612,15.612,0,0,1-3.516,1.779c-.951.228-1.861-.372-1.055-1.3.372-.455,1.344-.7,1.861-1.013.558-.352,1.1-.745,1.613-1.138,3.868-2.875,8.025-6.846,7.053-12.223-.165-.889-3.02-5.729-.434-5.46C384.235,218.724,384.256,223.067,384.959,224.494Z" transform="translate(-319.558 -212.293)" fill="#1a091c"/>
        <path id="Path_861" data-name="Path 861" d="M361.831,274.448a4.487,4.487,0,0,1,1.076-3.392c2.585-4.012,5.295-7.963,6.453-12.72.124-.517.517-1.1,1.138-1.055.931.062.848.889.848,1.51a6.193,6.193,0,0,1-.227,2.316,35.018,35.018,0,0,1-8.769,13.547A.347.347,0,0,1,361.831,274.448Z" transform="translate(-330.121 -170.83)" fill="#21103e" opacity="0.56"/>
        <path id="Path_862" data-name="Path 862" d="M394.674,251.163c-2.006-2.875-4.84-5.067-6.846-7.942-1.551-2.234-3.661-6.515-1.3-8.811a19.933,19.933,0,0,0,5.129,11.127,25.879,25.879,0,0,0,4.86,4.405,22.93,22.93,0,0,1,4.529,3.95c1.22,1.468,1.013,5.4.869,4.86C401.189,255.878,397.9,251.245,394.674,251.163Z" transform="translate(-304.806 -195.259)" fill="#1a091c"/>
        <path id="Path_863" data-name="Path 863" d="M395.21,340.905c.331-.414.579-.993,1.3-.807,3.164,1.82,6.453,3.123,10.238,2.358a2.063,2.063,0,0,1,2.234,1.055c1.241,4.281.724,8.893,2.461,13.113.352.848,8.066,7.777,11.231,10.838a20.5,20.5,0,0,1,1.737,1.489c1.344,1.613,3.1,3.661,1.965,5.5-1.034,1.7-3.226-.021-4.84-.455-5.646-1.53-11.21-3.268-16.856-4.819a4.346,4.346,0,0,1-3.351-3.082c-1.324-3.64-2.068-7.528-4.178-11.4a42.055,42.055,0,0,0-4.137,8.314c-.372,1.179-.641,2.482-2.358,2.027-1.572-.414-1.613-1.717-1.344-2.937C390.97,354.969,391.487,347.5,395.21,340.905Z" transform="translate(-300.832 -82.397)" fill="#093543"/>
        <path id="Path_864" data-name="Path 864" d="M383.85,342.165c.331-.414.579-.993,1.3-.807,3.164,1.82,6.453,3.123,10.238,2.358a2.063,2.063,0,0,1,2.234,1.055c1.241,4.281.724,8.893,2.461,13.113.352.848,8.066,7.777,11.231,10.838a20.5,20.5,0,0,1,1.737,1.489c1.344,1.613,3.1,3.661,1.965,5.5-1.034,1.7-3.226-.021-4.84-.455-5.646-1.531-11.21-3.268-16.856-4.819a4.346,4.346,0,0,1-3.351-3.082c-1.324-3.64-2.068-7.528-4.178-11.4a42.052,42.052,0,0,0-4.137,8.314c-.372,1.179-.641,2.482-2.358,2.027-1.572-.414-1.613-1.717-1.344-2.937C379.61,356.208,380.127,348.742,383.85,342.165Z" transform="translate(-312.968 -81.051)" fill="#093543"/>
        <g id="Group_566" data-name="Group 566" transform="translate(238.223 49.276)">
          <g id="Group_538" data-name="Group 538" transform="translate(0 5.313)">
            <g id="Group_536" data-name="Group 536" transform="translate(16.712)">
              <path id="Path_975" data-name="Path 975" d="M78.715,9.673l.819-2.863-1.646.078L77.74,9.533Z" transform="translate(-77.74 -6.81)" fill="#e0e0e0"/>
            </g>
            <g id="Group_537" data-name="Group 537" transform="translate(0 2.083)">
              <path id="Path_976" data-name="Path 976" d="M87.324,10.174,89.2,20.34,93.94,33.775,67.25,29.929,78.017,18.2l4.5-8.723,4.806.694" transform="translate(-67.25 -9.48)" fill="#e0e0e0"/>
            </g>
          </g>
          <g id="Group_554" data-name="Group 554" transform="translate(14.192)">
            <g id="Group_553" data-name="Group 553" transform="translate(0)">
              <g id="Group_540" data-name="Group 540" transform="translate(41.459 70.522)">
                <g id="Group_539" data-name="Group 539" transform="translate(0)">
                  <path id="Path_977" data-name="Path 977" d="M25.332,99.284c.008-.14.023-.281.023-.421a8.473,8.473,0,1,0-16.946,0c0,.14.016.281.023.421Z" transform="translate(-8.41 -90.39)" fill="#e0e0e0"/>
                </g>
              </g>
              <g id="Group_542" data-name="Group 542" transform="translate(49.586 27.405)">
                <g id="Group_541" data-name="Group 541" transform="translate(0)">
                  <path id="Path_978" data-name="Path 978" d="M4.8,78.578a.342.342,0,0,0,.328-.25L16.349,35.55a.339.339,0,1,0-.655-.172L4.467,78.157a.341.341,0,0,0,.242.414A.38.38,0,0,0,4.8,78.578Z" transform="translate(-4.456 -35.126)" fill="#e0e0e0"/>
                </g>
              </g>
              <g id="Group_544" data-name="Group 544" transform="translate(52.551 28.466)">
                <g id="Group_543" data-name="Group 543" transform="translate(0)">
                  <path id="Path_979" data-name="Path 979" d="M1,79.938a.342.342,0,0,0,.328-.25L12.549,36.91a.339.339,0,1,0-.655-.172L.667,79.517a.341.341,0,0,0,.242.413C.94,79.93.971,79.938,1,79.938Z" transform="translate(-0.656 -36.486)" fill="#e0e0e0"/>
                </g>
              </g>
              <g id="Group_546" data-name="Group 546" transform="translate(60.738 26.051)">
                <g id="Group_545" data-name="Group 545" transform="translate(0)">
                  <path id="Path_980" data-name="Path 980" d="M4.229,35.5A2.114,2.114,0,1,1,2.114,33.39,2.116,2.116,0,0,1,4.229,35.5Z" transform="translate(0 -33.39)" fill="#e0e0e0"/>
                </g>
              </g>
              <g id="Group_548" data-name="Group 548" transform="translate(0 0.453)">
                <g id="Group_547" data-name="Group 547">
                  <path id="Path_981" data-name="Path 981" d="M65.127,28.573l.382-.554L25.735.58,2.47,13.812,2.8,14.4,25.7,1.368Z" transform="translate(-2.47 -0.58)" fill="#e0e0e0"/>
                </g>
              </g>
              <g id="Group_550" data-name="Group 550" transform="translate(21.365 2.261)">
                <g id="Group_549" data-name="Group 549" transform="translate(0 0)">
                  <rect id="Rectangle_281" data-name="Rectangle 281" width="47.639" height="0.671" transform="translate(39.168 27.667) rotate(-145.306)" fill="#e0e0e0"/>
                </g>
              </g>
              <g id="Group_552" data-name="Group 552" transform="translate(20.714)">
                <g id="Group_551" data-name="Group 551">
                  <path id="Path_982" data-name="Path 982" d="M55.647,1.9a1.9,1.9,0,1,1-1.9-1.9A1.9,1.9,0,0,1,55.647,1.9Z" transform="translate(-51.84)" fill="#e0e0e0"/>
                </g>
              </g>
            </g>
          </g>
        </g>
      </g>
      <g id="Group_481" data-name="Group 481" transform="translate(90.656 201.328)">
        <g id="Group_480" data-name="Group 480" transform="translate(33.257 5.419)">
          <path id="Path_865" data-name="Path 865" d="M352.543,454.22H347l34.746-174.27h5.543Z" transform="translate(-347 -279.95)" fill="#4a608d"/>
          <path id="Path_866" data-name="Path 866" d="M504.506,454.22h5.543L475.3,279.95H469.76Z" transform="translate(-215.863 -279.95)" fill="#4a608d"/>
        </g>
        <path id="Path_867" data-name="Path 867" d="M686.906,288.995H335.636a4.74,4.74,0,0,1-4.716-4.716v-2.234a4.74,4.74,0,0,1,4.716-4.716H686.885a4.74,4.74,0,0,1,4.716,4.716v2.234A4.709,4.709,0,0,1,686.906,288.995Z" transform="translate(-330.92 -277.33)" fill="#4a608d"/>
      </g>
      <g id="Group_487" data-name="Group 487" transform="translate(0 62.229)">
        <g id="Group_482" data-name="Group 482" transform="translate(0 236.672)">
          <path id="Path_868" data-name="Path 868" d="M289.554,408.753h0c-1.965-.827-3.082-2.689-2.11-5.564,8.335-24.716,16.836-51.044,25.191-75.739.972-2.854,2.854-3.433,4.819-2.585h0c1.965.848,2.958,2.689,2.027,5.564-8.025,24.819-16.587,51.106-25.046,75.739C293.463,409.042,291.519,409.6,289.554,408.753Z" transform="translate(-287.087 -324.507)" fill="#4a608d"/>
          <path id="Path_869" data-name="Path 869" d="M343.454,409.533h0c1.965-.786,3.185-2.647,2.3-5.522-7.694-24.819-15.533-51.168-22.13-76.359-.765-2.916-2.565-3.475-4.488-2.668h0c-1.923.807-3.04,2.606-2.358,5.522,6.039,25.336,14.023,51.6,21.841,76.318C339.525,409.719,341.49,410.319,343.454,409.533Z" transform="translate(-255.59 -324.356)" fill="#4a608d"/>
        </g>
        <g id="Group_485" data-name="Group 485" transform="translate(11.244)">
          <path id="Path_870" data-name="Path 870" d="M323.723,245.61a187.922,187.922,0,0,1,19.235,38.138c1.2,3.206,2.337,6.8,3.309,10.155,18.366,2.275,36.691,3.806,55.222,4.674,3.309-1.406,7.528-2.9,11.044-2.42,9.7,1.3,16.112,6.225,21.1,14.333-7.528-.931-15.015-1.944-22.544-2.875-23.475,2.048-47.094,4.074-70.61,4.447-3.578.062-4.219-.1-6.66-3.289-7.611-9.969-13.837-21.923-18.676-33.836,1.448-1.3,3.537-2.9,4.529-4.467C324.675,262.445,325.626,254.71,323.723,245.61Z" transform="translate(-268.364 -172.115)" fill="#f2cda6"/>
          <path id="Path_871" data-name="Path 871" d="M317.1,244.41c0-.579-.021-1.158,0-1.779a5.415,5.415,0,0,1,5.109,1.8,61.38,61.38,0,0,1,11.851,18.594,36.434,36.434,0,0,1,1.923,5.191c.5,1.82.745,3.268-.662,4.86-1.406,1.613-3.744,2.4-5.812,3.185-.91.331-1.1-.29-1.655-.765a5.217,5.217,0,0,1-1.779-2.792C323.558,263,321.241,253.531,317.1,244.41Z" transform="translate(-266.275 -175.383)" fill="#6a6cd6"/>
          <path id="Path_872" data-name="Path 872" d="M317.1,244.41c0-.579-.021-1.158,0-1.779a5.415,5.415,0,0,1,5.109,1.8,61.38,61.38,0,0,1,11.851,18.594,36.434,36.434,0,0,1,1.923,5.191c.5,1.82.745,3.268-.662,4.86-1.406,1.613-3.744,2.4-5.812,3.185-.91.331-1.1-.29-1.655-.765a5.217,5.217,0,0,1-1.779-2.792C323.558,263,321.241,253.531,317.1,244.41Z" transform="translate(-266.275 -175.383)" fill="#35a368"/>
          <path id="Path_873" data-name="Path 873" d="M310.41,244.99c.455.517.91,1.034,1.324,1.551A5.614,5.614,0,0,1,310.41,244.99Z" transform="translate(-273.417 -172.778)" fill="#b6785c"/>
          <path id="Path_874" data-name="Path 874" d="M329.6,343.02c-3.64,3.971-7.28,7.963-10.92,11.934q4.56,3.413,9.162,6.784c3.537-3.93,7.073-7.88,10.631-11.81Q334.037,346.484,329.6,343.02Z" transform="translate(-264.583 -68.058)" fill="#ffd7ae"/>
          <path id="Path_875" data-name="Path 875" d="M327.044,347.858c.414-.29.993-.62,1.386-.062,1.944,2.813,3.992,5.109,7.322,6.349a1.7,1.7,0,0,1,1.3,1.82c-.869,3.992-3.1,7.653-3.7,11.748a3.506,3.506,0,0,0,.248,2.254c.558,4.137,2.73,7.611,4.136,11.458a18.222,18.222,0,0,1,.765,1.965c.372,1.758.931,4.281-.827,5.253s-2.647-1.324-3.743-2.378c-3.868-3.7-7.8-7.487-11.624-11.272a4.105,4.105,0,0,1-1.386-3.971c.517-3.578,1.51-7.363,1.593-11.065a45.25,45.25,0,0,0-7.053,4.984c-.889.807-1.737,1.551-2.792.6-1.055-.972-.6-2.027.165-2.937C317.323,357.248,321.294,351.85,327.044,347.858Z" transform="translate(-271.665 -63.279)" fill="#0b3543"/>
          <path id="Path_876" data-name="Path 876" d="M372.77,347.286l4.778,15.326c3.537-1.468,7.053-2.937,10.589-4.405-1.593-5.005-3.185-10.031-4.778-15.036C379.823,344.535,376.307,345.921,372.77,347.286Z" transform="translate(-206.802 -67.898)" fill="#ffd7ae"/>
          <path id="Path_877" data-name="Path 877" d="M374.687,351.58c.1-.476.29-1.137.972-.993,3.371.682,6.474.931,9.742-.455a1.705,1.705,0,0,1,2.213.414c2.13,3.475,3.061,7.632,5.46,11a3.54,3.54,0,0,0,1.737,1.468c3.289,2.606,7.26,3.64,10.962,5.439a15.061,15.061,0,0,1,1.923.91c1.489.993,3.64,2.44,3.04,4.364s-2.854.848-4.385.848c-5.377-.021-10.858-.083-16.277-.186a4.19,4.19,0,0,1-3.764-1.923c-2.11-2.937-3.992-6.35-6.515-9.08a43.038,43.038,0,0,0-1.675,8.418c-.083,1.2-.186,2.316-1.613,2.337s-1.841-1.055-1.923-2.234C374.15,364.983,373.281,358.385,374.687,351.58Z" transform="translate(-205.575 -60.693)" fill="#0b3543"/>
          <path id="Path_878" data-name="Path 878" d="M441.518,320.4a5.127,5.127,0,0,0-3.164-4.736c-3.268-1.634-6.763-3.123-10.2-4.467-2.958-1.158-6.122-2.11-9.1-3.144-13.382-4.633-27.218-8.459-40.641-12.6-7.549-2.337-14.622-4.3-22.006-6.887-2.089-.724-4.116-1.344-6.349-.724-1.448.414-2.027,1.944-2.771,3.144-3.5,5.543-7.756,9.845-14.064,11.83-7.528,2.378-14.809,1.51-22.5,1.324a36.547,36.547,0,0,1-11.044-2.213c-1.282-.434-2.461-1.779-3.847-1.075-.869.455-1.117,1.7-1.262,2.668-1.882,12.554.5,22.358,9.679,31.355a21.773,21.773,0,0,0,8.108,4.9c3.785,1.386,6.122,2.751,10.941,2.813,22.585.29,46.763-.31,69.7-.993a441.156,441.156,0,0,0-32.265,45.419c-3.206,5.109-4.695,7.342-6.887,12.72,2.358,2.275,6.287,19.3,14.871,10.4s42.3-47.115,52.326-57.993c3.04-3.309,3.868-4.219,4.529-3.123a4.735,4.735,0,0,0,.062-1.075c2.592-3.1,6.935-5.832,8.9-9.418C437.692,332.783,437.954,326.061,441.518,320.4Z" transform="translate(-290.978 -127.274)" fill="#145d74"/>
          <path id="Path_879" data-name="Path 879" d="M403.546,383.036c-8.19-18.676-17.373-44.839-24.323-64.219-2.647-7.4-3.082-8.6-5.688-14.829v-.538c-5.543,8.811-8.625,18.842-15.863,27.528a4.737,4.737,0,0,1-.062,1.075c.724,1.179,1.262,4.716,4.2,10.238,5.667,10.631,22.358,37.745,27.859,53.009a2.407,2.407,0,0,0,2.854,1.779c3.992-.558,7.921-.455,11.541-2.5a32.079,32.079,0,0,1,4.488-.993C406.193,388.393,406.358,389.489,403.546,383.036Z" transform="translate(-222.996 -110.328)" fill="#124d60"/>
          <path id="Path_880" data-name="Path 880" d="M325.2,294.33l76.732,26.908C380.008,306.967,350.164,301.61,325.2,294.33Z" transform="translate(-257.618 -120.071)" fill="#124d60"/>
          <g id="Group_483" data-name="Group 483" transform="translate(0 67.393)">
            <path id="Path_881" data-name="Path 881" d="M359.117,276.827a3.414,3.414,0,0,1-1.1,1.386c-.021-.083-.062-.165-.083-.248a.124.124,0,0,1-.021-.083c-.145-.352-.248-.7-.393-1.055-1.882.476-3.764.951-5.626,1.448-3.764.972-7.549,1.944-11.293,2.916-1.861.5-3.744.993-5.6,1.51a5.213,5.213,0,0,0,.248.6,3.5,3.5,0,0,0,.269.558c.786,1.324,2.11,1.51,3.02,2.9,1.737,2.585.662,1.779,1.262,6.081.6,4.323,9.783,13.733,14.147,17.022.517.393,2.751,2.854,3.516,3.454-.186,2.172-.538,4.178-.827,6.267a.076.076,0,0,0-.021.062A69.5,69.5,0,0,1,352,335.772c-.062.145-.124.31-.186.455-1.468,1.262-1.675,3.268-2.709,4.778-5.584,8.232-12.12,12.864-21.551,15.863a113.913,113.913,0,0,1-21.654,4.385,11.087,11.087,0,0,1-3.7-.248A23.048,23.048,0,0,1,296.159,359l-.021-.021c-.083-.062-.145-.1-.227-.165-.145-.083-.248-.186-.372-.269a8.262,8.262,0,0,1-1.882-2.006c-.1-.165-.207-.331-.31-.517,0-.021-.021,0-.041-.083s-.145-.31-.186-.455a.226.226,0,0,1-.041-.083c-.062-.145-.248-.765-.331-1.055a.124.124,0,0,1-.021-.083c-.021-.207.021-.021-.021-.145a3.261,3.261,0,0,1-.062-.331,5.985,5.985,0,0,1-.083-.7c0-.186-.021-.372-.021-.558v-.248a12.241,12.241,0,0,1,1.013-3.93,1.433,1.433,0,0,1,.1-.269v-.021c0-.021,0-.021.083-.145.021-.041.083-.1.145-.186a72.3,72.3,0,0,1,4.674-5.688c.062-.062.124-.145.186-.207.041-.062.1-.145.165-.227a34.831,34.831,0,0,0,3.082-6.6c.186-.62.682-1.634.889-2.378.083-.248.145-.414.31-.869.145-.476.455-1.365.641-2.027.434-1.551.91-3.247,1.241-4.881q.279-1.21.434-2.42c1.7-14.747.744-29.534,1.613-44.3.062-.993.186-1.944.31-2.9a79.542,79.542,0,0,1,2.234-11.417c.331-1.22.662-2.089.91-2.792,0,0,3.578-10.383,7.652-13.154.021-.021.372-.248.827-.538.124-.083.248-.145.414-.248.124-.062.248-.145.476-.248.455-.248,1.2-.641,1.82-.91.6-.269,1.158-.517,1.9-.827.724-.31,1.841-.745,2.647-1.034.786-.269,1.551-.538,2.358-.765.041,0,.083-.021.124-.021a.326.326,0,0,0,.083-.021c.021,0,.062-.021.083-.021.165-.041.476-.083.641-.124a10.106,10.106,0,0,1,2.234-.083c.393.021.765.021,1.158.062a.308.308,0,0,0,.124.021h.062c.021.021.021.021.041.021h.124c.352.021.455.041.848.083,0,0,.207.021,1.1.083.538.041,3.619-.083,8.046-.455a5.886,5.886,0,0,0,.6-.062c.455-.021.931-.083,1.406-.124a60.423,60.423,0,0,0,3.268,11.21,45.39,45.39,0,0,0,5.047,9.266s5.253,7.115,5.812,11.52A3.453,3.453,0,0,1,359.117,276.827Z" transform="translate(-292.507 -242.66)" fill="#35b769"/>
            <path id="Path_882" data-name="Path 882" d="M328.669,242.938c.29.538-4.695,3.475-9.99,8.749-3.806,3.806-5.295,15.3-5.584,17.7-.765,6.143,2.089,16.856,2.606,18.552,2.068,6.929,3.33,8.769,2.234,13.63-.765,3.371-3,3.309-4.509,5.564-5.853,8.687-1.613,22.482-3.805,32.244a42.239,42.239,0,0,1-4.509,11.417c-2.275,3.95-5.253,7.2-8.687,7.673-.207.021-.372.041-.538.041-.145,0-.248-.021-.372-.021-1.262-.165-1.551-1.262-1.861-2.254a5.027,5.027,0,0,0-.455-1.117,5.037,5.037,0,0,1-.476-1.1.125.125,0,0,1-.021-.083,5.581,5.581,0,0,1-.165-1.758V352.1a15.779,15.779,0,0,1,1.013-4.116c.021-.083.062-.186.083-.269a.02.02,0,0,1,.021-.021c0-.021,0-.021.083-.145.021-.041.083-.1.145-.186.186-.227.455-.579.662-.807,1.386-1.572,2.647-3.247,3.992-4.881.062-.062.124-.145.186-.207.041-.062.1-.145.165-.227a34.834,34.834,0,0,0,3.082-6.6c.186-.62.682-1.634.889-2.378.083-.248.145-.414.31-.869.145-.476.455-1.365.641-2.027.434-1.551.91-3.247,1.241-4.881q.279-1.21.434-2.42c1.7-14.747.745-29.534,1.613-44.3.062-.993.186-1.944.31-2.9a79.534,79.534,0,0,1,2.234-11.417c.331-1.22.662-2.089.91-2.792,0,0,3.578-10.383,7.653-13.154.021-.021.372-.248.827-.538.124-.083.248-.145.414-.248.124-.062.248-.145.476-.248.455-.248,1.2-.641,1.82-.91.6-.269,1.158-.517,1.9-.827.724-.31,1.841-.745,2.647-1.034.786-.269,1.551-.538,2.358-.765C328.648,242.917,328.669,242.917,328.669,242.938Z" transform="translate(-292.524 -242.38)" fill="#353264" opacity="0.15"/>
          </g>
          <path id="Path_883" data-name="Path 883" d="M363.2,323.49c-.352-2.813-.682-5.191-2.792-7.26A23.3,23.3,0,0,0,363.2,323.49Z" transform="translate(-220.005 -96.676)" fill="#0f3d4b"/>
          <path id="Path_884" data-name="Path 884" d="M302.442,310.23a8.171,8.171,0,0,1-3.992-6.06A23.852,23.852,0,0,1,302.442,310.23Z" transform="translate(-286.193 -109.559)" fill="#0f3d4b"/>
          <path id="Path_885" data-name="Path 885" d="M330.461,337.22a15.714,15.714,0,0,1-4.281,4.695C326.8,339.392,328.186,338.337,330.461,337.22Z" transform="translate(-256.571 -74.254)" fill="#0f3d4b"/>
          <path id="Path_886" data-name="Path 886" d="M337.142,329.41c-1.675,1.779-3.02,3.806-4.922,5.357C332.51,331.933,334.681,330.486,337.142,329.41Z" transform="translate(-250.119 -82.597)" fill="#0f3d4b"/>
          <path id="Path_887" data-name="Path 887" d="M342.648,321.26c-.951,1.427-1.9,2.771-2.9,4.2-.331.455-.869,1.013-1.386.538s-.1-.889.186-1.3A8.971,8.971,0,0,1,342.648,321.26Z" transform="translate(-243.815 -91.303)" fill="#0f3d4b"/>
          <path id="Path_888" data-name="Path 888" d="M333.2,333.81c-.931,1.158-1.841,2.337-2.813,3.454a.7.7,0,0,1-1.055.062c-.352-.31-.207-.7.083-1.034A5.92,5.92,0,0,1,333.2,333.81Z" transform="translate(-253.42 -77.897)" fill="#0f3d4b"/>
          <path id="Path_889" data-name="Path 889" d="M321.211,312.541a4.91,4.91,0,0,1-4.2-.207.59.59,0,0,1-.269-.745.622.622,0,0,1,.662-.434c1.3.227,2.565.5,3.868.765C321.149,312.065,321.418,312.479,321.211,312.541Z" transform="translate(-266.7 -102.108)" fill="#0f3d4b"/>
          <path id="Path_890" data-name="Path 890" d="M345.216,316.78a16.671,16.671,0,0,1-3.5,4.654C341.679,318.91,343.168,318,345.216,316.78Z" transform="translate(-239.971 -96.089)" fill="#0f3d4b"/>
          <path id="Path_891" data-name="Path 891" d="M327.176,313.136a5.942,5.942,0,0,1-4.012.062c-.393-.145-.682-.372-.641-.807a.637.637,0,0,1,.827-.558A11.338,11.338,0,0,1,327.176,313.136Z" transform="translate(-260.483 -101.4)" fill="#0f3d4b"/>
          <path id="Path_892" data-name="Path 892" d="M306.5,311.631a4.982,4.982,0,0,1-4.074-2.771A7.949,7.949,0,0,1,306.5,311.631Z" transform="translate(-281.942 -104.549)" fill="#0f3d4b"/>
          <path id="Path_893" data-name="Path 893" d="M307.17,311.846c1.717-.786,2.958-.352,4.385.765A6.929,6.929,0,0,1,307.17,311.846Z" transform="translate(-276.878 -101.786)" fill="#0f3d4b"/>
          <path id="Path_894" data-name="Path 894" d="M312.09,312.4a7.559,7.559,0,0,1,5.15.827C315.275,313.436,313.724,313.746,312.09,312.4Z" transform="translate(-271.623 -100.894)" fill="#0f3d4b"/>
          <path id="Path_895" data-name="Path 895" d="M362.96,322.48c1.448,1.572,1.655,3.206,1.965,5.253A7.551,7.551,0,0,1,362.96,322.48Z" transform="translate(-217.281 -90)" fill="#0f3d4b"/>
          <path id="Path_896" data-name="Path 896" d="M347.027,313.59a11.481,11.481,0,0,1-2.937,3.806C344.152,315.2,345.248,314.707,347.027,313.59Z" transform="translate(-237.439 -99.496)" fill="#0f3d4b"/>
          <path id="Path_897" data-name="Path 897" d="M338.585,325.41a3.348,3.348,0,0,1-.1.827c-.579,1.179-.786,2.172-2.048,2.709-.083.041-.393-.227-.352-.331A5.694,5.694,0,0,1,338.585,325.41Z" transform="translate(-245.997 -86.87)" fill="#0f3d4b"/>
          <path id="Path_898" data-name="Path 898" d="M335.934,312.614c-1.282-.165-2.4-.083-3.454-.931C334.2,311.125,334.693,311.311,335.934,312.614Z" transform="translate(-249.841 -101.85)" fill="#0f3d4b"/>
          <path id="Path_899" data-name="Path 899" d="M327.6,311.994a4.589,4.589,0,0,1,4.405.393A6.023,6.023,0,0,1,327.6,311.994Z" transform="translate(-255.054 -101.623)" fill="#0f3d4b"/>
          <path id="Path_900" data-name="Path 900" d="M347.383,311.794c-1.282.186-2.3.352-3.413-.414C345.542,310.677,346.038,310.739,347.383,311.794Z" transform="translate(-237.567 -102.354)" fill="#0f3d4b"/>
          <path id="Path_901" data-name="Path 901" d="M339.09,311.716a4.76,4.76,0,0,1,3.578-.062A4.968,4.968,0,0,1,339.09,311.716Z" transform="translate(-242.78 -101.904)" fill="#0f3d4b"/>
          <path id="Path_902" data-name="Path 902" d="M374.06,342.85c1.882,1.365,2.192,3.04,2.627,5.212A7.77,7.77,0,0,1,374.06,342.85Z" transform="translate(-205.424 -68.24)" fill="#0f3d4b"/>
          <path id="Path_903" data-name="Path 903" d="M373.952,342.578a21.551,21.551,0,0,1-3.1-5.4C373.228,338.235,373.58,340.158,373.952,342.578Z" transform="translate(-208.853 -74.297)" fill="#0f3d4b"/>
          <path id="Path_904" data-name="Path 904" d="M367.77,332.27c2.627,1.468,3.226,2.709,3.64,5.667C370.19,336.055,368.99,334.173,367.77,332.27Z" transform="translate(-212.143 -79.542)" fill="#0f3d4b"/>
          <path id="Path_905" data-name="Path 905" d="M344.573,239.129a24.74,24.74,0,0,1-.31,2.523c-.372,2.544-.207,6.308-.5,8.625-.91,7.239-5.171,11.065-12.182,11.417-.476.021-.889-.186-1.344-.207-.062,2.854.083,6.991-.041,9.6-.186,4.24-2.627,6.163-6.391,6.143-2.337,0-4.157-1.386-6.1-2.337a1.371,1.371,0,0,1-.476-.414c-.062-.124.145-.186.186-.331,1.117-6.6,1.117-12.265-1.241-18.614-.434,1.386-.807,2.689-1.2,4.157-.021-.724.021.5-.021-.7s-.124-4.8-.1-6.453c-5.46-4.529-8.273-9.473-8.376-16.587a.072.072,0,0,0-.021-.041c-5.584-10.962,11.148-17.621,20.786-16.98,8.6.579,15.843,7.735,17.208,16.773A16.277,16.277,0,0,1,344.573,239.129Z" transform="translate(-278.832 -200.67)" fill="#ffd7ae"/>
          <path id="Path_906" data-name="Path 906" d="M321.03,244.405q-3.164-4.778-6.37-9.555c-2.172,6.391.951,10.817,6.35,13.981C321.03,247.363,321.03,245.874,321.03,244.405Z" transform="translate(-269.622 -183.61)" fill="#ecc7a1"/>
          <path id="Path_907" data-name="Path 907" d="M350.758,233.4c-.807,2.627-3.371,4.343-5.667,4.984-4.819,1.344-8.935,1.262-13.692.807-.372,2.461-.745,4.964-1.013,7.466-1.51.062-2.5.455-4.137.414-1.655-.021-3.93-.6-5.729-.62-1.158,3.164-2.875,8.811-3.743,11.458-.848,2.647-.7,2.379-1.3,4.488a1.82,1.82,0,0,0,0-.476,4.884,4.884,0,0,0-.041-.745,15.434,15.434,0,0,0-3.909-8.583c-4.529-5.481-7.26-12-6.556-19.855.517-5.729,6.1-12.513,11.251-14.25C332.64,212.906,343.436,218.449,350.758,233.4Z" transform="translate(-279.349 -203.361)" fill="#d53a54"/>
          <path id="Path_908" data-name="Path 908" d="M315.071,228.18A5.193,5.193,0,0,1,322,230.641a4.861,4.861,0,0,1-2.068,6.825,5.278,5.278,0,0,1-6.991-2.482A4.838,4.838,0,0,1,315.071,228.18Z" transform="translate(-271.398 -191.293)" fill="#ffd7ae"/>
          <path id="Path_909" data-name="Path 909" d="M324.982,222.37a12.882,12.882,0,0,1-12.637,13.278,12.331,12.331,0,0,1-13.154-12.285,12.913,12.913,0,0,1,12.658-13.278A12.314,12.314,0,0,1,324.982,222.37Z" transform="translate(-285.404 -210.075)" fill="#d53a54"/>
          <path id="Path_910" data-name="Path 910" d="M312.419,255.236c-.021.145-.165.248-.207.31s0,.021-.021.021c-.021.021-.041-.021-.041-.041-.414-.662-.91-.869-1.324-1.613a5,5,0,0,1-.662-2.792c.227-2.854-.248-7.715-.124-10.134s.827-2.461,1.138-4.405c1.168,3.158,2.311,6.046,2.5,9.334C313.832,248.7,313,251.877,312.419,255.236Z" transform="translate(-273.834 -181.762)" fill="#ffd7ae"/>
          <path id="Path_911" data-name="Path 911" d="M315.45,252.622c-.683-3.557-1.282-5.522-3.93-8.562a27.324,27.324,0,0,1-6.618-19.69c1.2.021,1.53.682,1.551,1.9s-.455,2.813.538,3.826v.021a30.094,30.094,0,0,0,4.447,8.976,46.682,46.682,0,0,1,3.93,7.549c.434.993.869,1.965,1.3,2.958,0,.021.021.041.021.062a29.468,29.468,0,0,1-1.2,4.137c-.021-.186,0-.207-.021-.434A3.066,3.066,0,0,0,315.45,252.622Z" transform="translate(-279.367 -194.805)" fill="#ac293f" opacity="0.51"/>
          <path id="Path_912" data-name="Path 912" d="M310.7,232.74a4.384,4.384,0,0,1,1.034,3.475,12.244,12.244,0,0,1-1.262,4.323c-.414,1.468-1.282,2.709-1.593,4.2a18.361,18.361,0,0,0,3.826-9.307,1.44,1.44,0,0,0-.021-.6C312.272,233.795,311.92,232.905,310.7,232.74Z" transform="translate(-275.052 -185.864)" fill="#d53a54"/>
          <path id="Path_913" data-name="Path 913" d="M321.746,215.785c-.807.186-1.22-.579-1.9-.7-.827-.145-1.406.434-2.027,1.055-3.5,3.516-6.97,7.156-10.776,10.383-.062.041-.165.062-.186.124-.29,1.634-1.468,1.965-2.875,2.5a1.609,1.609,0,0,1,1.613,1.1c2.151,2.172,2.771,2.11,4.881-.1.372-.393.827-.889,1.22-1.344a42.7,42.7,0,0,1,7.322-6.867,16.978,16.978,0,0,0,2.006-1.861A3.135,3.135,0,0,0,321.746,215.785Z" transform="translate(-280.286 -204.751)" fill="#c03049"/>
          <path id="Path_914" data-name="Path 914" d="M324.175,244.058c-1.076-.579-1.7-1.282-.621-2.234s.91-2.048.476-3.164c-.434-1.1-.765-1.551-1.1-2.606a2.1,2.1,0,0,1,.538-2.627c.931-.807.889-2.275.91-3.309s.207-1.262,1.1-1.468a3.852,3.852,0,0,1,.248,2.089,14.9,14.9,0,0,0,.848,8.48C327.567,241.887,325.83,242.59,324.175,244.058Z" transform="translate(-260.275 -190.233)" fill="#ffd7ae"/>
          <path id="Path_915" data-name="Path 915" d="M323.911,222.067c-1.7-.641-2.834-1.965-4.157-3.04s-3-.869-4.364-1.8C319.547,215.241,321.926,218.778,323.911,222.067Z" transform="translate(-268.097 -203.05)" fill="#ac293f" opacity="0.51"/>
          <path id="Path_916" data-name="Path 916" d="M308.967,232.421a8.916,8.916,0,0,1-3.206-6.825c-.021-.641.1-1.282.869-1.324.765-.062.682.682.62,1.262a8.544,8.544,0,0,0,.91,3.744A7.24,7.24,0,0,1,308.967,232.421Z" transform="translate(-278.386 -194.914)" fill="#ac293f" opacity="0.51"/>
          <path id="Path_917" data-name="Path 917" d="M317.306,220.3c.352,1.882-.021,2.958-1.82,3.888s-3.04,0-4.426-1.324A6.035,6.035,0,0,0,317.306,220.3Z" transform="translate(-272.723 -199.153)" fill="#ac293f" opacity="0.51"/>
          <path id="Path_918" data-name="Path 918" d="M305.749,212.034a10.387,10.387,0,0,0-2.358,3.433,5.7,5.7,0,0,0,.662,6.225c1.531,2.027,3.7,2.523,6.143,2.4a2.936,2.936,0,0,0,1.8-1.055,7.768,7.768,0,0,0,2.316-6.2c-.165-2.151-.972-3.02-2.813-3.247a4.531,4.531,0,0,0-4.24,2.751c-.5,1.344.517,1.675,1.179,2.13s1.158.6.786,1.282c-.352.682-1.075.558-1.634.29-2.089-.993-3.082-2.916-1.758-5.129a6.314,6.314,0,0,1,6.7-3.02c2.647.62,3.413,3.04,3.537,5.584a7.012,7.012,0,0,1-.558,3.247c-1.158,2.358-2.275,4.591-5.295,4.964a7.709,7.709,0,0,1-7.632-3.619c-1.655-2.709-1.675-4.881-.145-7.714C303.143,213.047,303.97,211.661,305.749,212.034Z" transform="translate(-283.131 -208.301)" fill="#c03049" opacity="0.51"/>
          <g id="Group_484" data-name="Group 484" transform="translate(42.453 101.519)">
            <path id="Path_919" data-name="Path 919" d="M336.09,260.608c-1.841,1.344-5.274,2.089-7.239,2.482-4.467.91-12.161-.1-15.367,3.164-.124-.414-.31-.786-.434-1.2,7.487-2.068,15.015-3.95,22.544-5.895C335.759,259.656,335.966,260.111,336.09,260.608Z" transform="translate(-313.05 -259.16)" fill="#35a368"/>
            <path id="Path_920" data-name="Path 920" d="M434,295.61c-8.542.62-16.939.7-25.481,1.427-23.454,1.965-47.135,3.992-70.61,4.467-1.551.041-2.048.31-3.516-.331-1.489-.62-1.882-1.179-3.206-3a149.763,149.763,0,0,1-14.312-23.992c-1.3-2.792-2.42-5.832-3.619-8.666,3.185-3.288,10.9-2.275,15.367-3.185,1.944-.393,5.377-1.137,7.239-2.482,2.9,7.735,5.481,15.553,7.88,23.454,18.366,2.254,36.691,3.764,55.222,4.654,3.351-1.262,7.59-2.565,11.044-2.441C419.733,285.868,427.013,289.178,434,295.61Z" transform="translate(-312.826 -258.423)" fill="#ffd7ae"/>
          </g>
          <path id="Path_921" data-name="Path 921" d="M307.609,250.85c-1.138,9.2,2.42,16.4,8.831,22.751Z" transform="translate(-276.634 -166.518)" fill="#353264" opacity="0.3"/>
          <path id="Path_922" data-name="Path 922" d="M314.007,232.71a4.139,4.139,0,0,1-.662,3.5,12.19,12.19,0,0,1-3.144,3.206c-1.055,1.1-2.4,1.779-3.371,2.958a18.667,18.667,0,0,0,7.777-6.412,1.464,1.464,0,0,0,.269-.538C314.979,234.3,315.041,233.372,314.007,232.71Z" transform="translate(-277.242 -185.896)" fill="#d53a54"/>
          <path id="Path_923" data-name="Path 923" d="M312.112,222.13a5.968,5.968,0,0,1,3.02-3.7,17.4,17.4,0,0,1,5.6-2.048c1.882-.7,3.847-.786,5.708-1.613a25.691,25.691,0,0,0-12.885,3.268,1.724,1.724,0,0,0-.641.5C312.071,219.731,311.368,220.786,312.112,222.13Z" transform="translate(-271.934 -205.078)" fill="#d53a54"/>
        </g>
        <g id="Group_486" data-name="Group 486" transform="translate(5.982 215.174)">
          <path id="Path_924" data-name="Path 924" d="M361.252,340.064c-18.552-.021-41.3-.165-59.855-.538-7.342-.145-11.272-5.75-11.168-12.72h0c.124-6.949,4.364-12.678,11.747-12.678,18.7-.021,41.737-.1,60.372.517,7.384.248,10.8,5.915,10.548,12.844h0C372.648,334.417,368.594,340.084,361.252,340.064Z" transform="translate(-289.98 -314.113)" fill="#4a608d"/>
        </g>
      </g>
      <g id="Group_488" data-name="Group 488" transform="translate(155.371 144.1)">
        <path id="Path_925" data-name="Path 925" d="M423.676,249.66H392.693a6.409,6.409,0,0,0-2.358,4.116c-2.916,15.76-6.908,31.313-8.914,47.259a13.023,13.023,0,0,0-.1,2.358,7.478,7.478,0,0,0,1.013,3.723h35.925c5.853-.5,10.941-.931,13.8-1.158a28.791,28.791,0,0,0,2.254-2.585c6.97-8.645,8.128-18.325,2.3-28.211C431.763,266.868,426.282,259.008,423.676,249.66Z" transform="translate(-341.815 -249.66)" fill="#ccc"/>
        <path id="Path_926" data-name="Path 926" d="M401.432,249.66a25.119,25.119,0,0,0,5.895,16.877c5.646,6.991,10.093,14.622,9.493,24.447-.352,5.977-5.729,9.369-6.225,14.974,7.57,1.427,11.665-1.055,12.492-9.328l8.087-46.949H401.432Z" transform="translate(-320.316 -249.66)" fill="#dcdcdc"/>
        <path id="Path_927" data-name="Path 927" d="M458.962,277.367v.248a1.685,1.685,0,0,1-.124.641,1.739,1.739,0,0,1-1.613,1.1H363.947a1.748,1.748,0,0,1-1.737-1.737v-.248a1.748,1.748,0,0,1,1.737-1.737h93.278A1.748,1.748,0,0,1,458.962,277.367Z" transform="translate(-362.21 -221.918)" fill="#ccc"/>
        <circle id="Ellipse_39" data-name="Ellipse 39" cx="6.763" cy="6.763" r="6.763" transform="translate(71.189 19.731)" fill="#575757"/>
      </g>
      <g id="Group_493" data-name="Group 493" transform="translate(260.188)">
        <path id="Path_928" data-name="Path 928" d="M480.18,289.094c-1.986.517-3.93.993-5.812,1.448a.85.85,0,0,0-.227-.021c-.207-.331-.393-.683-.62-1.013.434-.331.352-.972.124-2.441-.393-2.854-.682-5.729-1.138-8.583-.931-5.853-.31-11.748-.827-17.6-.207-2.544-.558-5.088-.7-7.653-.062-1.282-1.158-2.068-1.406-3.226.517-.724,1.055-1.406,2.151-1.241,1.241.165,2.482.372,3.723.517a2.938,2.938,0,0,1,1.53.579C477.988,258.9,479.063,271.555,480.18,289.094Z" transform="translate(-352.34 -106.545)" fill="#3f39a6" opacity="0.27"/>
        <g id="Group_492" data-name="Group 492">
          <g id="Group_489" data-name="Group 489" transform="translate(32.538 91.959)">
            <path id="Path_929" data-name="Path 929" d="M448.552,256.286a275.539,275.539,0,0,0,29.059-6.1c.579-4.323.807-7.942-1.779-11.768-7.094-.021-14-1.365-21.117-1.076-5.439-1.075-10.61-1.448-16.029,0-3.971,1.055-5.377,4.591-7.073,7.715-.848,1.551-1.117,3.33-1.923,4.9.765,3.185,1.551,6.287,5.5,7.032A27.322,27.322,0,0,0,448.552,256.286Z" transform="translate(-427.48 -211.695)" fill="#ecc7a1"/>
            <path id="Path_930" data-name="Path 930" d="M430.832,262.712c2.627-1.9,2.73-4.922,4.447-7.363,2.358-3.351,4.716-5.191,9.224-5.15,3.681.041,7.632.083,11.355-.124,1.117-5.646,2.234-11.313,3.351-16.939.041-.207.186-.393.227-.579.414-2.172.558-3.557-.083-4.343-1.055-1.344-3.681-1.055-4.405-.993-3.475.372-10.01-.062-23.04-2.771a69.957,69.957,0,0,0-2.875,28.583A66.329,66.329,0,0,0,430.832,262.712Z" transform="translate(-428.621 -224.45)" fill="#ffd7ae"/>
          </g>
          <path id="Path_931" data-name="Path 931" d="M442.7,354.721c-1.386,5.729-2.751,11.437-4.137,17.166-4.3-.6-8.6-1.179-12.906-1.779q2.11-8.469,4.2-16.939Q436.28,353.977,442.7,354.721Z" transform="translate(-399.247 5.014)" fill="#ffd7ae"/>
          <path id="Path_932" data-name="Path 932" d="M474.455,352.59c-.041,5.832-.083,11.644-.124,17.477l-13.051.745q.093-8.624.227-17.249C465.83,353.231,470.132,352.9,474.455,352.59Z" transform="translate(-361.196 4.394)" fill="#ffd7ae"/>
          <path id="Path_933" data-name="Path 933" d="M453.842,362.5c-.476-.641-.931-1.138-1.944-.538a11.963,11.963,0,0,1-7.032,1.51,6.264,6.264,0,0,1-5.233-3.206c-.476-.931-.827-1.1-1.717-.765-7.135,2.5-14.85,5.419-21.82,8.025a4.647,4.647,0,0,0-3.02,2.668h0c-.517,1.22.021,2.358,1.758,2.379,12.037.1,24.964.248,37.063.186,1.9,0,2.482-.807,2.606-2.5.145-1.7-.29-4.55-.269-6.474a.616.616,0,0,0-.083-.352A4.47,4.47,0,0,0,453.842,362.5Z" transform="translate(-412.889 11.609)" fill="#8a4949"/>
          <path id="Path_934" data-name="Path 934" d="M461.077,361.7c.5-.641.951-1.117,1.965-.517a11.931,11.931,0,0,0,7.011,1.572,6.447,6.447,0,0,0,5.315-3.144c.5-.931.848-1.076,1.737-.745,7.115,2.585,14.809,5.564,21.758,8.232a4.523,4.523,0,0,1,2.978,2.709h0c.517,1.22-.041,2.358-1.8,2.358-12.078-.021-25.046-.021-37.166-.207-1.9-.021-2.482-.827-2.585-2.523-.124-1.7.352-4.53.352-6.453a.617.617,0,0,1,.083-.352A6.486,6.486,0,0,1,461.077,361.7Z" transform="translate(-362.275 10.923)" fill="#8a4949"/>
          <path id="Path_935" data-name="Path 935" d="M506.878,271.841c.083-.248.165-.517.248-.765a77.069,77.069,0,0,1-42.006-6.225q-9.959,48.428-20.682,97.724Q434.324,408.924,423.9,454.3c7.777-.083,15.553-.145,23.33-.227,15.925-48.769,31.727-97.58,47.8-146.328,2.42,48.418,4.136,96.835,5.936,145.273q12.378.155,24.736.29c1.82-60.765,3.578-121.53,4.55-182.315Q518.553,271.427,506.878,271.841Z" transform="translate(-401.127 -89.334)" fill="#d26464"/>
          <path id="Path_936" data-name="Path 936" d="M540.722,257.509c-.021.021-.021.062-.041.083a1.219,1.219,0,0,1-.579.7c-.165.1-.372.186-.6.352-.579.393-1.3-.021-1.965.041-.1.021-.414,0-.6.021-5.977.5-12.141,1.551-18.1,1.489-1.841-.021-2.978.165-3.557.7-.558.517-.662,1.324-.476,2.585.041.372.124.765.207,1.179.993,4.654,1.468,9.824,3.02,14.54.207.641.558,1.675.724,2.42,0,.021.021.021.021.041a1.766,1.766,0,0,0,.083.31V282a156.966,156.966,0,0,1,2.647,16.98c.041.372.083.869.165,1.593,0,.021.021.083.021.1,1.3,12.265,2.068,24.943,3,37.332-1.158.227.248.021-.951.248-.021,0-.021,0-.062.021-6.494,1.282-54.395,10.838-64.922-3.309a13.628,13.628,0,0,1-1.013-1.593c-2.5-4.509-1.841-9.493.869-15.76a2.288,2.288,0,0,1,.145-.331c3.64-8.273,5.915-19.379,3.433-29.079a1.336,1.336,0,0,0-.083-.269.076.076,0,0,1-.021-.062,33.767,33.767,0,0,0-1.551-3.743,42.614,42.614,0,0,0-9.452-12.554l-.021-.021c-.765-.724-.6.186-1.055-.786a1.008,1.008,0,0,1-.062-.145,3.024,3.024,0,0,1-.186-.434c-.765-1.82-.827-7.094-1.344-9.99v-.021c-.579-2.875-5.915-6.68-5.915-6.68L430.05,247.21s.1-.434.31-1.22c.021-.041.021-.1.041-.165,1.386-5.005,6.6-22.151,15.1-28.935,4.922-3.93,18.1-9.783,26.349-11.458.807-.145,2.565-.7,3.537-.827a.776.776,0,0,1,.207-.021c.227,0,.517-.207.662-.083.372.331.558.91,1.034,1.22,6.019,4.1,13.34,2.254,19.793.269h.021a333618.092,333618.092,0,0,0,.166-.041,3.567,3.567,0,0,0,.434-.145c.372-.124.558-.207.7-.248l.021-.021h.021a2.591,2.591,0,0,1,.372-.124.206.206,0,0,1,.083-.021l.021-.021c.041,0,0,0,.083-.021a.47.47,0,0,1,.227.062c.434.083.869.207,1.282.31a47.727,47.727,0,0,1,13.671,5.977c.827.517,1.572,1.034,2.378,1.572.29.186.558.372.848.579.745.517,1.489,1.055,2.192,1.593a.287.287,0,0,1,.083.062c.869.641,1.717,1.324,2.523,2.006.807.662,1.53,1.3,2.316,2.006.207.207.393.352.662.6,5.564,5.295,10.61,10.734,13.547,17.642C541.321,243.88,543.224,251.408,540.722,257.509Z" transform="translate(-394.557 -153.844)" fill="#fee192"/>
          <g id="Group_490" data-name="Group 490" transform="translate(102.607 51.723)">
            <path id="Path_937" data-name="Path 937" d="M507.36,262.5c-.372.021-.765.021-.931.021-.372,0-.476.1-.682-.021-.227-.124-.145-.869-.145-1.055-.041-1.138-.083-2.378-.165-3.7-.021-.248-.021-.476-.041-.724-.558-9.266-2.337-21.737-9.08-25.874-5.646-3.475-4.281-2.151-8.521-6.453-2.3-2.316-.869-3.392-2.709-5.874-4.716-6.308-13.8-9.493-20.579-12.43a2.764,2.764,0,0,1-.248-.124c-1.2-.517-.765-.269-1.51-.641a1.107,1.107,0,0,1-.248-.145.307.307,0,0,0,.124.021l-.021-.021c-.021-.021-.021-.021-.041-.021.021,0,.021-.021.062-.062a.02.02,0,0,1,.021-.021c.083-.207.827-.352.993-.331.145,0,.083-.021.145-.021L463.8,205h.021a.839.839,0,0,1,.227,0,1.78,1.78,0,0,0,.331.021c.5.062.993.1,1.51.166a47.727,47.727,0,0,1,13.671,5.977c.827.517,1.572,1.034,2.378,1.572.29.186.558.372.848.579.745.517,1.489,1.055,2.192,1.593a.286.286,0,0,1,.083.062c.869.641,1.717,1.324,2.523,2.006.807.662,1.531,1.3,2.316,2.006.207.207.393.352.662.6,5.564,5.295,10.61,10.734,13.547,17.642,2.606,6.081,4.509,13.609,2.006,19.71-.021.021-.021.062-.041.083h.021C506.161,257.021,506.7,259.234,507.36,262.5Z" transform="translate(-462.5 -204.996)" opacity="0.27"/>
          </g>
          <path id="Path_938" data-name="Path 938" d="M475.663,240.874c.124,1.593.724,2.647-1.386,3.061-2.358-3.785-3.164-8.025-4.674-12.1-.765-2.048-1.427-4.137-2.234-6.122-.476-1.2-.331-2.151.91-2.565s1.655.6,1.923,1.365c.807,2.316,1.8,4.426,2.42,6.763A68.048,68.048,0,0,0,475.663,240.874Z" transform="translate(-354.959 -133.982)" opacity="0.27"/>
          <path id="Path_939" data-name="Path 939" d="M458.68,223.48" transform="translate(-363.973 -133.527)" fill="#4a749a"/>
          <path id="Path_940" data-name="Path 940" d="M512.133,288.656c-17.477.269-35.967.352-53.588.29a4.648,4.648,0,0,1-4.674-2.916c-8.356-16.649-17.166-34.56-25.233-51.189-1.013-2.068-.517-2.958,1.758-3,17.435-.31,35.884-.579,53.485-.517a4.681,4.681,0,0,1,4.695,2.958c8.4,16.711,17.249,34.705,25.315,51.416C514.884,287.746,514.408,288.615,512.133,288.656Z" transform="translate(-396.6 -125.156)" fill="#404040"/>
          <path id="Path_941" data-name="Path 941" d="M477.336,217.865c.558.827-.269,2.11-1.468,2.441a33.73,33.73,0,0,1-18.283.6c-.579-.145-1.3-1.117-1.406-1.2-1.572-1.262-7.094-8.211-5.667-9.638,2.213-2.234,5.088,1.427,8.107-.124a9.568,9.568,0,0,0,4.55-6.163,28.164,28.164,0,0,0,.227-3.454,16.4,16.4,0,0,1,3.516-7.466c.269,2.813-.083,2.978.848,6.66a48.9,48.9,0,0,0,4.033,9.307C472.6,210.13,475.867,215.652,477.336,217.865Z" transform="translate(-372.95 -166.236)" fill="#ffd7ae"/>
          <path id="Path_942" data-name="Path 942" d="M477.066,204.785a3.059,3.059,0,0,1-1.427,1.634c-.538.331-.848.062-1.179.29a4.191,4.191,0,0,0-1.365,4.24c.682,4.24-1.737,7.715-4.964,9.762a20.012,20.012,0,0,1-7.921,3.247c-1.593.372-3.351-.6-4.55-1.655a3.728,3.728,0,0,1-.393-.414,52.092,52.092,0,0,1-9.307-13.857,64.361,64.361,0,0,1-3.93-12.161c2.978-3.743,19.4-15.077,23.681-12.12,6.039,4.178-.5,10.321,4.819,13.774,2.192,1.406,3.351-.165,5.336-.5C477.4,199.553,478.017,201.993,477.066,204.785Z" transform="translate(-381.76 -176.486)" fill="#ffd7ae"/>
          <path id="Path_943" data-name="Path 943" d="M486.861,212.4a33.582,33.582,0,0,1-1.572-7.4,9.722,9.722,0,0,0-1.22-4.033c.352-6.66.579-17.291-9.865-16.38-10.589-9.183-21.716-3.164-28.376,5.439-3.661,4.716-4.592,3.847-9.018,6.039,12.079,6.556,22.523,3.723,32.6-4.757.062,5.047.91,10.527,6.639,12.678,1.861-.6,3.7-1.22,5.564-1.82.352,2.668.1,4.612-1.923,6.639a5.828,5.828,0,0,0,1.158,3.144c1.241,1.468,4.178,3.578,6.081,2.234C487.585,213.767,487.151,213.25,486.861,212.4Z" transform="translate(-387.336 -179.987)" fill="#3a3a3a"/>
          <path id="Path_944" data-name="Path 944" d="M466.258,200.709a1.1,1.1,0,0,0-.145.62,6.74,6.74,0,0,0,.145,1.779c.662,3.868-1.758,7.673-4.964,9.638a20.638,20.638,0,0,1-7.921,3.247c-1.593.352-3.351-.579-4.55-1.655a2.214,2.214,0,0,1-.372-.393c1.179-.517,2.958-1.365,3.992-1.9a45.517,45.517,0,0,0,6.66-4.054c2.937-2.316,4.24-4.385,4.736-7.756a20.1,20.1,0,0,1,.476-2.234,4.143,4.143,0,0,1,.827-1.53c1.406-1.986,2.689-3.826,4.074-5.729a5.259,5.259,0,0,1,.414,1.468C469.5,195.518,467.54,197.772,466.258,200.709Z" transform="translate(-374.902 -168.501)" fill="#ecc7a1"/>
          <g id="Group_491" data-name="Group 491" transform="translate(99.548 103.674)">
            <path id="Path_945" data-name="Path 945" d="M490.512,261.417a270.918,270.918,0,0,1-29.1-5.708c-.6-4.323-.827-7.942,1.717-11.768,7.115-.1,14.043-1.551,21.158-1.427,5.419-1.2,10.589-1.634,16.05-.248,3.992,1.013,5.4,4.55,7.094,7.673.848,1.551,1.117,3.33,1.944,4.9-.745,3.206-1.551,6.35-5.5,7.135A27.312,27.312,0,0,1,490.512,261.417Z" transform="translate(-461.021 -218.054)" fill="#ecc7a1"/>
            <path id="Path_946" data-name="Path 946" d="M501.374,257.158a50.219,50.219,0,0,1-1.758,9.721l-.021-.021c-2.627-1.9-2.751-4.9-4.447-7.322-2.358-3.351-4.736-5.15-9.245-5.047-3.206.083-6.66.207-9.928.083-.476-.021-.993-.021-1.448-.021v-.021c-1.158-5.646-2.3-11.272-3.475-16.918-.041-.207-.186-.372-.227-.6-.021-.228-.227-.7-.227-.91a2.276,2.276,0,0,0-.041-.538c-.186-1.055-.869-2.089.124-3.082a2.481,2.481,0,0,1,1.117-.724,11.842,11.842,0,0,1,3.661-.207c5.564.021,12.616-.993,18.573-1.386.993-.062,2.13-.062,3.185-.041.207,0,.434.021.62.021h.021a35.16,35.16,0,0,1,1.324,5.46C500.361,241.667,501.829,251.222,501.374,257.158Z" transform="translate(-451.262 -230.114)" fill="#ffd7ae"/>
          </g>
          <path id="Path_947" data-name="Path 947" d="M441.536,240.114c-.558,1.489-.476,2.709-2.565,2.172-.517-4.426.558-8.6.91-12.947.186-2.172.455-4.343.579-6.494.062-1.282.62-2.089,1.923-1.923s1.241,1.241,1.158,2.068c-.248,2.441-.248,4.778-.682,7.156A69.948,69.948,0,0,0,441.536,240.114Z" transform="translate(-385.175 -136.283)" opacity="0.27"/>
        </g>
        <path id="Path_948" data-name="Path 948" d="M479.786,243.191s-37.642-4.405-34.126,4.529c3.516,8.955,32.409,7.239,32.409,7.239Z" transform="translate(-378.13 -113.631)" fill="#ecc7a1"/>
        <path id="Path_949" data-name="Path 949" d="M433.958,253.709s29.39-1.179,30.176-7.921a3.062,3.062,0,0,0-.414-1.758c-2.689-6.184-13.754-9.286-22.44-6.639-2.73.848-7.756,2.378-9.245,6.97C430.607,248.807,433.461,253.006,433.958,253.709Z" transform="translate(-392.86 -119.681)" fill="#ecc7a1"/>
      </g>
    </g>
    <g id="Group_503" data-name="Group 503" transform="translate(396.694 453.616)">
      <g id="Group_830" data-name="Group 830" transform="translate(-0.686 14.384)">
        <g id="Group_628" data-name="Group 628" transform="translate(35.445 137.228)">
          <g id="Group_624" data-name="Group 624" transform="translate(0.127 0.127)">
            <g id="Group_623" data-name="Group 623">
              <g id="Group_622" data-name="Group 622">
                <rect id="Rectangle_292" data-name="Rectangle 292" width="73.364" height="10.082" fill="#263238"/>
              </g>
            </g>
          </g>
          <g id="Group_627" data-name="Group 627">
            <g id="Group_626" data-name="Group 626">
              <g id="Group_625" data-name="Group 625">
                <path id="Path_989" data-name="Path 989" d="M101.58,118.546H27.95V108.21h73.617v10.336ZM28.2,118.292h73.123v-9.828H28.2Z" transform="translate(-27.95 -108.21)" fill="#263238"/>
              </g>
            </g>
          </g>
        </g>
        <g id="Group_632" data-name="Group 632" transform="translate(42.382 144.076)">
          <g id="Group_631" data-name="Group 631">
            <g id="Group_630" data-name="Group 630">
              <g id="Group_629" data-name="Group 629">
                <path id="Path_990" data-name="Path 990" d="M33.42,113.61l10.564,52.109H83.056l10.209-48.749Z" transform="translate(-33.42 -113.61)" fill="#263238"/>
              </g>
            </g>
          </g>
        </g>
        <g id="Group_636" data-name="Group 636" transform="translate(42.382 191.252)">
          <g id="Group_635" data-name="Group 635">
            <g id="Group_634" data-name="Group 634">
              <g id="Group_633" data-name="Group 633">
                <path id="Path_991" data-name="Path 991" d="M33.42,150.81l5.631,7.749H86.544l6.721-7.749Z" transform="translate(-33.42 -150.81)" fill="#263238"/>
              </g>
            </g>
          </g>
        </g>
        <g id="Group_641" data-name="Group 641" transform="translate(69.046 37.777)">
          <g id="Group_640" data-name="Group 640">
            <g id="Group_639" data-name="Group 639">
              <g id="Group_638" data-name="Group 638">
                <g id="Group_637" data-name="Group 637">
                  <path id="Path_992" data-name="Path 992" d="M54.908,137.61c-.14,0-.33-24.133-.419-53.91s-.038-53.91.114-53.91.33,24.133.419,53.91S55.047,137.61,54.908,137.61Z" transform="translate(-54.446 -29.79)" fill="#263238"/>
                </g>
              </g>
            </g>
          </g>
        </g>
        <g id="Group_646" data-name="Group 646" transform="translate(79.067 85.194)">
          <g id="Group_645" data-name="Group 645">
            <g id="Group_644" data-name="Group 644">
              <g id="Group_643" data-name="Group 643">
                <g id="Group_642" data-name="Group 642">
                  <path id="Path_993" data-name="Path 993" d="M69.135,67.18a2.4,2.4,0,0,1-.2.558c-.178.406-.393.926-.659,1.56-.152.342-.3.723-.482,1.129q-.228.647-.495,1.37c-.178.495-.368,1.015-.571,1.573s-.355,1.167-.545,1.788a74.777,74.777,0,0,0-2.054,8.979,110.165,110.165,0,0,0-1.141,11.236,152.032,152.032,0,0,0,.583,20.519c.241,2.625.469,4.73.647,6.2.076.685.14,1.243.19,1.687a1.946,1.946,0,0,1,.025.6,3.045,3.045,0,0,1-.139-.583c-.076-.444-.165-.989-.279-1.674-.241-1.458-.533-3.564-.812-6.189a134.968,134.968,0,0,1-.736-20.582,104.022,104.022,0,0,1,1.179-11.287,69.033,69.033,0,0,1,2.169-9.017c.2-.621.368-1.23.583-1.788s.418-1.078.609-1.573.368-.938.533-1.357.368-.774.52-1.116c.3-.621.545-1.129.748-1.522A3.118,3.118,0,0,1,69.135,67.18Z" transform="translate(-62.347 -67.18)" fill="#263238"/>
                </g>
              </g>
            </g>
          </g>
        </g>
        <g id="Group_651" data-name="Group 651" transform="translate(74.454 65.677)">
          <g id="Group_650" data-name="Group 650">
            <g id="Group_649" data-name="Group 649">
              <g id="Group_648" data-name="Group 648">
                <g id="Group_647" data-name="Group 647">
                  <path id="Path_994" data-name="Path 994" d="M68.234,51.79a5.629,5.629,0,0,1-.228.8q-.285.837-.761,2.245c-.165.495-.355,1.027-.558,1.623-.178.6-.38,1.255-.6,1.953-.431,1.395-.926,2.98-1.37,4.768-.241.888-.482,1.826-.736,2.79-.216.977-.444,2-.685,3.056-.507,2.105-.888,4.388-1.357,6.772-.812,4.794-1.522,10.095-2.016,15.687-.469,5.593-.659,10.944-.736,15.8-.013,4.87.051,9.245.241,12.923.063,1.839.178,3.5.279,4.959s.178,2.714.266,3.741c.076.989.139,1.775.178,2.359a3.675,3.675,0,0,1,.025.824,5.35,5.35,0,0,1-.127-.812c-.063-.583-.165-1.37-.279-2.359-.127-1.027-.241-2.283-.355-3.741s-.266-3.12-.355-4.959c-.254-3.678-.342-8.066-.355-12.948.038-4.87.228-10.234.7-15.839.495-5.605,1.217-10.919,2.054-15.725.482-2.384.875-4.68,1.408-6.785.254-1.053.482-2.08.723-3.056.266-.964.52-1.9.774-2.79.469-1.788.989-3.373,1.446-4.756.228-.7.444-1.344.634-1.94.216-.583.419-1.116.609-1.611.355-.926.647-1.661.862-2.219A3.21,3.21,0,0,1,68.234,51.79Z" transform="translate(-58.71 -51.79)" fill="#263238"/>
                </g>
              </g>
            </g>
          </g>
        </g>
        <g id="Group_656" data-name="Group 656" transform="translate(50.879 41.075)">
          <g id="Group_655" data-name="Group 655">
            <g id="Group_654" data-name="Group 654">
              <g id="Group_653" data-name="Group 653">
                <g id="Group_652" data-name="Group 652">
                  <path id="Path_995" data-name="Path 995" d="M54.108,141.187c-.013,0-.025-.089-.038-.279-.013-.216-.038-.495-.063-.824-.051-.774-.127-1.839-.216-3.2-.178-2.815-.431-6.823-.736-11.756-.634-9.93-1.56-23.639-3.234-38.717-.85-7.546-1.839-14.7-2.866-21.191-.545-3.247-1.04-6.328-1.611-9.194-.52-2.879-1.078-5.542-1.585-7.977-.482-2.435-1.015-4.629-1.458-6.544s-.837-3.576-1.179-4.921c-.33-1.319-.583-2.359-.761-3.107-.076-.33-.139-.6-.19-.812-.038-.19-.051-.279-.051-.279a1.317,1.317,0,0,1,.1.266c.063.2.139.469.241.8.2.748.495,1.775.862,3.082.368,1.344.812,2.98,1.268,4.908s1.027,4.109,1.534,6.544c.533,2.435,1.116,5.1,1.649,7.977.583,2.866,1.091,5.948,1.661,9.194,1.053,6.493,2.067,13.658,2.917,21.217,1.674,15.091,2.536,28.826,3.082,38.755.266,4.971.457,8.991.571,11.769.051,1.357.089,2.435.114,3.2.013.342.013.621.013.837A1.151,1.151,0,0,1,54.108,141.187Z" transform="translate(-40.12 -32.39)" fill="#263238"/>
                </g>
              </g>
            </g>
          </g>
        </g>
        <g id="Group_660" data-name="Group 660" transform="translate(45.835 43.357)">
          <g id="Group_659" data-name="Group 659">
            <g id="Group_658" data-name="Group 658">
              <g id="Group_657" data-name="Group 657">
                <path id="Path_996" data-name="Path 996" d="M59.22,40.227c-.317-3.424-3.779-6-7.2-6.036s-6.633,2.029-8.738,4.743a27.3,27.3,0,0,0-4.21,9.334c-2.308,8.053-3.576,16.524-2.587,24.843s4.363,16.512,10.336,22.4c.976.951,2.232,1.915,3.564,1.623a4.192,4.192,0,0,0,1.877-1.167A55.631,55.631,0,0,0,70.3,53.682c-.089-3.17-.507-6.455-2.257-9.093S62.2,39.161,59.22,40.227" transform="translate(-36.143 -34.19)" fill="#e8505b"/>
              </g>
            </g>
          </g>
        </g>
        <g id="Group_694" data-name="Group 694" transform="translate(24.476 0.005)">
          <g id="Group_664" data-name="Group 664" transform="translate(0.101 9.479)">
            <g id="Group_663" data-name="Group 663">
              <g id="Group_662" data-name="Group 662">
                <g id="Group_661" data-name="Group 661">
                  <path id="Path_997" data-name="Path 997" d="M38.073,20q-2.416,4.375-4.832,8.763c-.114.2-.266.431-.495.457-.254.025-.444-.216-.583-.431L19.38,9.154,22.322,7.48Z" transform="translate(-19.38 -7.48)" fill="#e8505b"/>
                </g>
              </g>
            </g>
          </g>
          <g id="Group_669" data-name="Group 669" transform="translate(0.101 9.479)" opacity="0.2">
            <g id="Group_668" data-name="Group 668">
              <g id="Group_667" data-name="Group 667">
                <g id="Group_666" data-name="Group 666">
                  <g id="Group_665" data-name="Group 665">
                    <path id="Path_998" data-name="Path 998" d="M38.073,20q-2.416,4.375-4.832,8.763c-.114.2-.266.431-.495.457-.254.025-.444-.216-.583-.431L19.38,9.154,22.322,7.48Z" transform="translate(-19.38 -7.48)"/>
                  </g>
                </g>
              </g>
            </g>
          </g>
          <g id="Group_673" data-name="Group 673">
            <g id="Group_672" data-name="Group 672">
              <g id="Group_671" data-name="Group 671">
                <g id="Group_670" data-name="Group 670">
                  <path id="Path_999" data-name="Path 999" d="M64.028,37.79Q42.209,24.912,20.4,12.046a2.078,2.078,0,0,1-1.065-1.065c-.178-.647.3-1.268.774-1.75A30.046,30.046,0,0,1,43.421.075,26.625,26.625,0,0,1,64.5,13.188c4.223,7.508,4.363,17.463-.469,24.6" transform="translate(-19.3 -0.005)" fill="#e8505b"/>
                </g>
              </g>
            </g>
          </g>
          <g id="Group_678" data-name="Group 678" transform="translate(7.393 3.664)">
            <g id="Group_677" data-name="Group 677">
              <g id="Group_676" data-name="Group 676">
                <g id="Group_675" data-name="Group 675">
                  <g id="Group_674" data-name="Group 674">
                    <path id="Path_1000" data-name="Path 1000" d="M25.13,3.054a3.323,3.323,0,0,1,.571-.076c.38-.013.926-.089,1.649-.076a32.816,32.816,0,0,1,6.049.482,34.939,34.939,0,0,1,24.78,17.222,35.215,35.215,0,0,1,3.462,8.319A32.2,32.2,0,0,1,62.719,34.9c.076.71.063,1.268.089,1.649a2.423,2.423,0,0,1-.013.571c-.051,0-.1-.786-.279-2.207A36.821,36.821,0,0,0,50.925,12.375a36.544,36.544,0,0,0-17.59-8.649A38.88,38.88,0,0,0,27.349,3.1,21.9,21.9,0,0,1,25.13,3.054Z" transform="translate(-25.13 -2.894)" fill="#263238"/>
                  </g>
                </g>
              </g>
            </g>
          </g>
          <g id="Group_683" data-name="Group 683" transform="translate(23.106 20.005)">
            <g id="Group_682" data-name="Group 682">
              <g id="Group_681" data-name="Group 681">
                <g id="Group_680" data-name="Group 680">
                  <g id="Group_679" data-name="Group 679">
                    <path id="Path_1001" data-name="Path 1001" d="M53.233,15.793a10.421,10.421,0,0,1-2.207,1c-1.395.545-3.335,1.243-5.5,1.94s-4.16,1.243-5.618,1.6a10.861,10.861,0,0,1-2.384.457,11.639,11.639,0,0,1,2.283-.812c1.611-.507,3.487-1.091,5.555-1.737,2.067-.672,3.931-1.268,5.542-1.788A10.866,10.866,0,0,1,53.233,15.793Z" transform="translate(-37.52 -15.78)" fill="#263238"/>
                  </g>
                </g>
              </g>
            </g>
          </g>
          <g id="Group_688" data-name="Group 688" transform="translate(31.87 1.566)">
            <g id="Group_687" data-name="Group 687">
              <g id="Group_686" data-name="Group 686">
                <g id="Group_685" data-name="Group 685">
                  <g id="Group_684" data-name="Group 684">
                    <path id="Path_1002" data-name="Path 1002" d="M44.519,1.24a18.991,18.991,0,0,1,.52,4.87,18.287,18.287,0,0,1-.266,4.882,30.539,30.539,0,0,1-.254-4.87A28.989,28.989,0,0,1,44.519,1.24Z" transform="translate(-44.431 -1.24)" fill="#263238"/>
                  </g>
                </g>
              </g>
            </g>
          </g>
          <g id="Group_693" data-name="Group 693" transform="translate(0.722 6.156)">
            <g id="Group_692" data-name="Group 692">
              <g id="Group_691" data-name="Group 691">
                <g id="Group_690" data-name="Group 690">
                  <g id="Group_689" data-name="Group 689">
                    <path id="Path_1003" data-name="Path 1003" d="M19.87,10.25a19.667,19.667,0,0,1,3.17-1.116C25.019,8.525,27.783,7.752,30.852,7S36.737,5.7,38.779,5.329A21.541,21.541,0,0,1,42.1,4.873a21.7,21.7,0,0,1-3.259.812c-2.016.457-4.806,1.078-7.875,1.813s-5.834,1.458-7.837,1.978A21.366,21.366,0,0,1,19.87,10.25Z" transform="translate(-19.87 -4.86)" fill="#263238"/>
                  </g>
                </g>
              </g>
            </g>
          </g>
        </g>
        <g id="Group_724" data-name="Group 724" transform="translate(0 38.039)">
          <g id="Group_698" data-name="Group 698">
            <g id="Group_697" data-name="Group 697">
              <g id="Group_696" data-name="Group 696">
                <g id="Group_695" data-name="Group 695">
                  <path id="Path_1004" data-name="Path 1004" d="M49.091,33.247c-3.754-2.841-7.723-3.4-12.428-3.221a38.017,38.017,0,0,0-13.595,3.513C15.713,36.76,8.8,41.5,4.4,48.225S-1.522,63.848,1.776,71.179a3.267,3.267,0,0,0,1.484,1.813,3.536,3.536,0,0,0,2.46-.19c8.37-2.727,16.791-5.479,24.488-9.752s14.7-10.209,18.82-17.983a15.537,15.537,0,0,0,1.978-5.973,7.45,7.45,0,0,0-1.915-5.846" transform="translate(0 -29.996)" fill="#e8505b"/>
                </g>
              </g>
            </g>
          </g>
          <g id="Group_703" data-name="Group 703" transform="translate(2.89 2.37)">
            <g id="Group_702" data-name="Group 702">
              <g id="Group_701" data-name="Group 701">
                <g id="Group_700" data-name="Group 700">
                  <g id="Group_699" data-name="Group 699">
                    <path id="Path_1005" data-name="Path 1005" d="M48.556,31.871a3.568,3.568,0,0,1-.6.241q-.685.228-1.75.609c-.393.127-.812.266-1.268.418s-.951.368-1.484.583c-1.053.431-2.283.862-3.576,1.484-.659.3-1.344.609-2.054.938s-1.42.736-2.169,1.116c-1.522.748-3.056,1.7-4.68,2.663a80.488,80.488,0,0,0-9.9,7.343,82.78,82.78,0,0,0-8.547,8.89c-1.167,1.5-2.308,2.9-3.234,4.312-.507.685-1,1.344-1.408,2s-.812,1.306-1.192,1.915c-.786,1.2-1.37,2.371-1.928,3.361-.266.507-.533.964-.761,1.395s-.406.837-.583,1.2c-.342.685-.609,1.23-.824,1.661a3.7,3.7,0,0,1-.317.571,3.318,3.318,0,0,1,.228-.609c.19-.444.431-1,.736-1.712.165-.38.342-.786.545-1.23s.469-.913.723-1.42c.533-1.015,1.1-2.194,1.864-3.411.368-.621.761-1.268,1.167-1.94s.9-1.332,1.37-2.042c.926-1.433,2.054-2.853,3.221-4.363a77.907,77.907,0,0,1,8.573-8.979A78.879,78.879,0,0,1,30.7,39.506c1.649-.964,3.208-1.9,4.743-2.638.761-.38,1.484-.774,2.194-1.091s1.408-.621,2.08-.913c1.306-.609,2.549-1.015,3.627-1.42.545-.19,1.04-.393,1.509-.533s.9-.266,1.294-.38c.736-.216,1.319-.38,1.788-.507A1.859,1.859,0,0,1,48.556,31.871Z" transform="translate(-2.279 -31.865)" fill="#263238"/>
                  </g>
                </g>
              </g>
            </g>
          </g>
          <g id="Group_708" data-name="Group 708" transform="translate(1.458 18.229)">
            <g id="Group_707" data-name="Group 707">
              <g id="Group_706" data-name="Group 706">
                <g id="Group_705" data-name="Group 705">
                  <g id="Group_704" data-name="Group 704">
                    <path id="Path_1006" data-name="Path 1006" d="M19.551,44.383a87.219,87.219,0,0,1-9.131,2.942A88.219,88.219,0,0,1,1.15,49.76a87.219,87.219,0,0,1,9.131-2.942A86.456,86.456,0,0,1,19.551,44.383Z" transform="translate(-1.15 -44.371)" fill="#263238"/>
                  </g>
                </g>
              </g>
            </g>
          </g>
          <g id="Group_713" data-name="Group 713" transform="translate(19.24 18.976)">
            <g id="Group_712" data-name="Group 712">
              <g id="Group_711" data-name="Group 711">
                <g id="Group_710" data-name="Group 710">
                  <g id="Group_709" data-name="Group 709">
                    <path id="Path_1007" data-name="Path 1007" d="M15.411,64.363a14.267,14.267,0,0,1-.2-2.841c-.051-1.763-.051-4.185.013-6.873s.216-5.111.368-6.861a16.47,16.47,0,0,1,.355-2.828,15.871,15.871,0,0,1,.013,2.853c-.063,1.928-.127,4.261-.216,6.861-.063,2.587-.127,4.933-.178,6.861A14.7,14.7,0,0,1,15.411,64.363Z" transform="translate(-15.171 -44.96)" fill="#263238"/>
                  </g>
                </g>
              </g>
            </g>
          </g>
          <g id="Group_718" data-name="Group 718" transform="translate(35.151 7.487)">
            <g id="Group_717" data-name="Group 717">
              <g id="Group_716" data-name="Group 716">
                <g id="Group_715" data-name="Group 715">
                  <g id="Group_714" data-name="Group 714">
                    <path id="Path_1008" data-name="Path 1008" d="M29.293,58c-.14.013-.609-4.933-1.027-11.033s-.647-11.058-.507-11.071.609,4.933,1.027,11.033S29.445,57.992,29.293,58Z" transform="translate(-27.718 -35.9)" fill="#263238"/>
                  </g>
                </g>
              </g>
            </g>
          </g>
          <g id="Group_723" data-name="Group 723" transform="translate(15.256 6.926)">
            <g id="Group_722" data-name="Group 722">
              <g id="Group_721" data-name="Group 721">
                <g id="Group_720" data-name="Group 720">
                  <g id="Group_719" data-name="Group 719">
                    <path id="Path_1009" data-name="Path 1009" d="M12.03,35.549a15.7,15.7,0,0,1,2.929-.089c1.8.013,4.3.063,7.038.152s5.238.2,7.038.3a15.482,15.482,0,0,1,2.917.279,15.6,15.6,0,0,1-2.917.089c-1.8-.013-4.3-.063-7.051-.152s-5.238-.2-7.038-.3A15.3,15.3,0,0,1,12.03,35.549Z" transform="translate(-12.03 -35.458)" fill="#263238"/>
                  </g>
                </g>
              </g>
            </g>
          </g>
        </g>
        <g id="Group_729" data-name="Group 729" transform="translate(58.178 49.507)">
          <g id="Group_728" data-name="Group 728">
            <g id="Group_727" data-name="Group 727">
              <g id="Group_726" data-name="Group 726">
                <g id="Group_725" data-name="Group 725">
                  <path id="Path_1010" data-name="Path 1010" d="M46.071,96.552a3.147,3.147,0,0,1-.063-.6q-.038-.666-.076-1.712c-.063-1.484-.076-3.64-.025-6.316s.228-5.834.533-9.346c.342-3.513.837-7.355,1.534-11.363.723-4.007,1.585-7.787,2.486-11.2s1.852-6.442,2.727-8.953,1.623-4.54,2.207-5.91c.266-.647.495-1.167.659-1.585a2.267,2.267,0,0,1,.266-.533,2.564,2.564,0,0,1-.165.571c-.152.418-.342.964-.571,1.611-.52,1.395-1.217,3.424-2.042,5.96s-1.712,5.567-2.612,8.966c-.862,3.4-1.712,7.178-2.435,11.16-.7,3.995-1.2,7.825-1.573,11.312-.342,3.5-.558,6.658-.647,9.308s-.139,4.806-.139,6.29c-.013.7-.013,1.268-.025,1.712A1.916,1.916,0,0,1,46.071,96.552Z" transform="translate(-45.875 -39.04)" fill="#263238"/>
                </g>
              </g>
            </g>
          </g>
        </g>
        <g id="Group_734" data-name="Group 734" transform="translate(47.465 77.253)">
          <g id="Group_733" data-name="Group 733">
            <g id="Group_732" data-name="Group 732">
              <g id="Group_731" data-name="Group 731">
                <g id="Group_730" data-name="Group 730">
                  <path id="Path_1011" data-name="Path 1011" d="M50.645,60.921a11.8,11.8,0,0,1-1.737,1.915c-1.129,1.129-2.727,2.638-4.553,4.236s-3.538,2.993-4.806,3.969a11.432,11.432,0,0,1-2.118,1.471,12.369,12.369,0,0,1,1.89-1.763c1.344-1.167,2.929-2.549,4.692-4.071,1.737-1.547,3.323-2.942,4.654-4.122A14.37,14.37,0,0,1,50.645,60.921Z" transform="translate(-37.428 -60.918)" fill="#263238"/>
                </g>
              </g>
            </g>
          </g>
        </g>
        <g id="Group_739" data-name="Group 739" transform="translate(62.162 70.673)">
          <g id="Group_738" data-name="Group 738">
            <g id="Group_737" data-name="Group 737">
              <g id="Group_736" data-name="Group 736">
                <g id="Group_735" data-name="Group 735">
                  <path id="Path_1012" data-name="Path 1012" d="M61.347,73.434A19.752,19.752,0,0,1,59.5,70.872c-1.192-1.737-2.676-3.906-4.312-6.29-1.674-2.371-3.183-4.5-4.4-6.227a20.647,20.647,0,0,1-1.763-2.625,18.566,18.566,0,0,1,2.054,2.41c1.2,1.534,2.828,3.7,4.54,6.151s3.17,4.718,4.2,6.392A20.31,20.31,0,0,1,61.347,73.434Z" transform="translate(-49.017 -55.729)" fill="#263238"/>
                </g>
              </g>
            </g>
          </g>
        </g>
        <g id="Group_744" data-name="Group 744" transform="translate(46.478 53.398)">
          <g id="Group_743" data-name="Group 743">
            <g id="Group_742" data-name="Group 742">
              <g id="Group_741" data-name="Group 741">
                <g id="Group_740" data-name="Group 740">
                  <path id="Path_1013" data-name="Path 1013" d="M57.423,42.111c.076.127-4.515,3.208-10.247,6.9s-10.45,6.582-10.526,6.455,4.5-3.208,10.247-6.9S57.347,42,57.423,42.111Z" transform="translate(-36.649 -42.107)" fill="#263238"/>
                </g>
              </g>
            </g>
          </g>
        </g>
        <g id="Group_749" data-name="Group 749" transform="translate(66.678 54.172)">
          <g id="Group_748" data-name="Group 748">
            <g id="Group_747" data-name="Group 747">
              <g id="Group_746" data-name="Group 746">
                <g id="Group_745" data-name="Group 745">
                  <path id="Path_1014" data-name="Path 1014" d="M66.087,55.91a85.475,85.475,0,0,1-6.937-6.4,84.971,84.971,0,0,1-6.569-6.785,84.385,84.385,0,0,1,6.937,6.417A83.694,83.694,0,0,1,66.087,55.91Z" transform="translate(-52.578 -42.718)" fill="#263238"/>
                </g>
              </g>
            </g>
          </g>
        </g>
        <g id="Group_779" data-name="Group 779" transform="translate(83.433 37.952)">
          <g id="Group_753" data-name="Group 753" transform="translate(0 0.319)">
            <g id="Group_752" data-name="Group 752">
              <g id="Group_751" data-name="Group 751">
                <g id="Group_750" data-name="Group 750">
                  <path id="Path_1015" data-name="Path 1015" d="M65.79,58.993l3.931-.33a19.376,19.376,0,0,0,7.951-2.435,31.606,31.606,0,0,1,3.7-1.864c4.87-1.953,10.3-1.611,15.535-1.864a64.408,64.408,0,0,0,24.717-6.315,2.438,2.438,0,0,0,1.078-.976c.812-1.471-.7-2.79-1.991-3.576-6.633-4.084-13.379-8.23-20.912-10.26S83.747,29.686,77.318,34.1C69.81,39.286,67.071,49.938,65.79,58.993" transform="translate(-65.79 -30.18)" fill="#e8505b"/>
                </g>
              </g>
            </g>
          </g>
          <g id="Group_758" data-name="Group 758" transform="translate(0.087 4.069)">
            <g id="Group_757" data-name="Group 757">
              <g id="Group_756" data-name="Group 756">
                <g id="Group_755" data-name="Group 755">
                  <g id="Group_754" data-name="Group 754">
                    <path id="Path_1016" data-name="Path 1016" d="M122.789,43.92a3.95,3.95,0,0,1-.672-.3c-.469-.254-1.091-.571-1.864-.976-1.623-.85-3.944-2.105-6.9-3.526a64.839,64.839,0,0,0-10.665-4.109,35.041,35.041,0,0,0-13.823-1.116A23.63,23.63,0,0,0,76.259,39.3a28.251,28.251,0,0,0-6.569,9.22c-1.382,2.955-2.232,5.466-2.853,7.178-.292.824-.52,1.484-.7,1.991a3.261,3.261,0,0,1-.279.685,3.682,3.682,0,0,1,.178-.71q.228-.761.609-2.016a63.643,63.643,0,0,1,2.714-7.267,27.956,27.956,0,0,1,6.582-9.423A23.845,23.845,0,0,1,88.8,33.395a35.024,35.024,0,0,1,14.026,1.179,62.446,62.446,0,0,1,10.7,4.248c2.929,1.458,5.238,2.765,6.835,3.678.748.444,1.357.8,1.813,1.065A2.728,2.728,0,0,1,122.789,43.92Z" transform="translate(-65.859 -33.137)" fill="#263238"/>
                  </g>
                </g>
              </g>
            </g>
          </g>
          <g id="Group_763" data-name="Group 763" transform="translate(24.855 4.616)">
            <g id="Group_762" data-name="Group 762">
              <g id="Group_761" data-name="Group 761">
                <g id="Group_760" data-name="Group 760">
                  <g id="Group_759" data-name="Group 759">
                    <path id="Path_1017" data-name="Path 1017" d="M108.1,48.89c-.076.114-5.225-3.208-11.5-7.444S85.314,33.7,85.39,33.571s5.225,3.208,11.5,7.444S108.179,48.776,108.1,48.89Z" transform="translate(-85.389 -33.568)" fill="#263238"/>
                  </g>
                </g>
              </g>
            </g>
          </g>
          <g id="Group_768" data-name="Group 768" transform="translate(34.507 4.088)">
            <g id="Group_767" data-name="Group 767">
              <g id="Group_766" data-name="Group 766">
                <g id="Group_765" data-name="Group 765">
                  <g id="Group_764" data-name="Group 764">
                    <path id="Path_1018" data-name="Path 1018" d="M101.116,33.2a12.442,12.442,0,0,1-4.02.812,12.011,12.011,0,0,1-4.1-.063,23.271,23.271,0,0,1,4.045-.457A22.112,22.112,0,0,1,101.116,33.2Z" transform="translate(-93 -33.151)" fill="#263238"/>
                  </g>
                </g>
              </g>
            </g>
          </g>
          <g id="Group_773" data-name="Group 773" transform="translate(15.686)">
            <g id="Group_772" data-name="Group 772">
              <g id="Group_771" data-name="Group 771">
                <g id="Group_770" data-name="Group 770">
                  <g id="Group_769" data-name="Group 769">
                    <path id="Path_1019" data-name="Path 1019" d="M82,29.931A13.721,13.721,0,0,1,80.316,33.3a13.412,13.412,0,0,1-2.143,3.107,13.721,13.721,0,0,1,1.687-3.373A13.876,13.876,0,0,1,82,29.931Z" transform="translate(-78.159 -29.928)" fill="#263238"/>
                  </g>
                </g>
              </g>
            </g>
          </g>
          <g id="Group_778" data-name="Group 778" transform="translate(8.483 11.894)">
            <g id="Group_777" data-name="Group 777">
              <g id="Group_776" data-name="Group 776">
                <g id="Group_775" data-name="Group 775">
                  <g id="Group_774" data-name="Group 774">
                    <path id="Path_1020" data-name="Path 1020" d="M88.142,50.382a13.346,13.346,0,0,1-2.473-1.344c-1.484-.9-3.5-2.232-5.643-3.779s-4.045-3.031-5.4-4.109a15.243,15.243,0,0,1-2.143-1.839,14.93,14.93,0,0,1,2.359,1.534c1.547,1.116,3.411,2.486,5.491,3.982,2.143,1.56,4.109,2.917,5.542,3.893A18.248,18.248,0,0,1,88.142,50.382Z" transform="translate(-72.479 -39.306)" fill="#263238"/>
                  </g>
                </g>
              </g>
            </g>
          </g>
        </g>
        <g id="Group_809" data-name="Group 809" transform="translate(80.022 82.031)">
          <g id="Group_783" data-name="Group 783">
            <g id="Group_782" data-name="Group 782">
              <g id="Group_781" data-name="Group 781">
                <g id="Group_780" data-name="Group 780">
                  <path id="Path_1021" data-name="Path 1021" d="M72.32,66.467c-3.754-.989-8.23,2.663-9,6.468s.659,7.7,2.321,11.211c3.7,7.761,8.8,14.964,15.535,20.316s15.142,8.788,23.74,8.738c-1.585-7.368.418-15.079-.469-22.573a29.367,29.367,0,0,0-26-25.744c-2.4-.254-5.174-.634-6.125,1.585" transform="translate(-63.1 -64.685)" fill="#e8505b"/>
                </g>
              </g>
            </g>
          </g>
          <g id="Group_788" data-name="Group 788" transform="translate(9.213 1.807)">
            <g id="Group_787" data-name="Group 787">
              <g id="Group_786" data-name="Group 786">
                <g id="Group_785" data-name="Group 785">
                  <g id="Group_784" data-name="Group 784">
                    <path id="Path_1022" data-name="Path 1022" d="M102.963,112.817a2.978,2.978,0,0,1-.533-.254,10.609,10.609,0,0,1-1.408-.938,14.768,14.768,0,0,1-3.7-4.959c-.6-1.167-1.268-2.422-1.928-3.817-.634-1.408-1.306-2.891-2.016-4.464a45.235,45.235,0,0,0-2.486-4.768,38.144,38.144,0,0,0-3.411-4.642c-2.574-3.018-5.326-5.631-7.723-8.129a52.418,52.418,0,0,1-5.884-7.064,26.122,26.122,0,0,1-2.879-5.491c-.241-.7-.419-1.23-.507-1.611a2.158,2.158,0,0,1-.114-.571c.051-.013.266.761.812,2.118a28.343,28.343,0,0,0,2.993,5.364A56.412,56.412,0,0,0,80.1,80.529C82.5,83,85.272,85.6,87.872,88.658a36.1,36.1,0,0,1,3.449,4.718,41.785,41.785,0,0,1,2.486,4.844c.7,1.573,1.357,3.082,1.978,4.489s1.281,2.663,1.852,3.83a15.1,15.1,0,0,0,3.513,4.971C102.253,112.411,102.989,112.766,102.963,112.817Z" transform="translate(-70.365 -66.11)" fill="#263238"/>
                  </g>
                </g>
              </g>
            </g>
          </g>
          <g id="Group_793" data-name="Group 793" transform="translate(22.366 25.699)">
            <g id="Group_792" data-name="Group 792">
              <g id="Group_791" data-name="Group 791">
                <g id="Group_790" data-name="Group 790">
                  <g id="Group_789" data-name="Group 789">
                    <path id="Path_1023" data-name="Path 1023" d="M80.754,101.639a11.727,11.727,0,0,1,.342-2.524c.292-1.547.774-3.665,1.433-5.986s1.344-4.375,1.9-5.846a11.392,11.392,0,0,1,1.027-2.333,13.924,13.924,0,0,1-.672,2.46c-.469,1.5-1.1,3.564-1.75,5.872s-1.179,4.4-1.573,5.922A12.7,12.7,0,0,1,80.754,101.639Z" transform="translate(-80.737 -84.95)" fill="#263238"/>
                  </g>
                </g>
              </g>
            </g>
          </g>
          <g id="Group_798" data-name="Group 798" transform="translate(23.068 20.197)">
            <g id="Group_797" data-name="Group 797">
              <g id="Group_796" data-name="Group 796">
                <g id="Group_795" data-name="Group 795">
                  <g id="Group_794" data-name="Group 794">
                    <path id="Path_1024" data-name="Path 1024" d="M99.323,84.693a15.664,15.664,0,0,1-2.65-.609c-1.623-.419-3.855-1-6.341-1.56s-4.756-.989-6.392-1.306a14.433,14.433,0,0,1-2.65-.583A13.3,13.3,0,0,1,84,80.851c1.661.216,3.957.6,6.455,1.167s4.73,1.2,6.328,1.712A13.815,13.815,0,0,1,99.323,84.693Z" transform="translate(-81.29 -80.612)" fill="#263238"/>
                  </g>
                </g>
              </g>
            </g>
          </g>
          <g id="Group_803" data-name="Group 803" transform="translate(8.444 10.087)">
            <g id="Group_802" data-name="Group 802">
              <g id="Group_801" data-name="Group 801">
                <g id="Group_800" data-name="Group 800">
                  <g id="Group_799" data-name="Group 799">
                    <path id="Path_1025" data-name="Path 1025" d="M69.773,92.094a15.944,15.944,0,0,1,.406-2.929c.33-1.788.85-4.261,1.56-6.95s1.446-5.1,2.042-6.823a14.908,14.908,0,0,1,1.078-2.752,17.5,17.5,0,0,1-.723,2.866c-.495,1.75-1.179,4.16-1.89,6.848s-1.281,5.123-1.7,6.9A20.412,20.412,0,0,1,69.773,92.094Z" transform="translate(-69.758 -72.64)" fill="#263238"/>
                  </g>
                </g>
              </g>
            </g>
          </g>
          <g id="Group_808" data-name="Group 808" transform="translate(11.591 6.267)">
            <g id="Group_807" data-name="Group 807">
              <g id="Group_806" data-name="Group 806">
                <g id="Group_805" data-name="Group 805">
                  <g id="Group_804" data-name="Group 804">
                    <path id="Path_1026" data-name="Path 1026" d="M93.127,71.875c-.013.14-4.7-.241-10.475-.85a100.466,100.466,0,0,1-10.412-1.37c.013-.139,4.7.241,10.475.85A101.106,101.106,0,0,1,93.127,71.875Z" transform="translate(-72.24 -69.627)" fill="#263238"/>
                  </g>
                </g>
              </g>
            </g>
          </g>
        </g>
        <g id="Group_814" data-name="Group 814" transform="translate(35.458 147.132)">
          <g id="Group_813" data-name="Group 813">
            <g id="Group_812" data-name="Group 812">
              <g id="Group_811" data-name="Group 811">
                <g id="Group_810" data-name="Group 810">
                  <path id="Path_1027" data-name="Path 1027" d="M101.565,116.286c0,.14-16.486.266-36.8.266s-36.8-.114-36.8-.266,16.474-.266,36.8-.266S101.565,116.134,101.565,116.286Z" transform="translate(-27.96 -116.02)" fill="#455a64"/>
                </g>
              </g>
            </g>
          </g>
        </g>
        <g id="Group_819" data-name="Group 819" transform="translate(48 168.336)">
          <g id="Group_818" data-name="Group 818">
            <g id="Group_817" data-name="Group 817">
              <g id="Group_816" data-name="Group 816">
                <g id="Group_815" data-name="Group 815">
                  <path id="Path_1028" data-name="Path 1028" d="M87.448,133.006c0,.139-11.109.266-24.793.266s-24.805-.114-24.805-.266,11.1-.266,24.805-.266S87.448,132.867,87.448,133.006Z" transform="translate(-37.85 -132.74)" fill="#455a64"/>
                </g>
              </g>
            </g>
          </g>
        </g>
        <g id="Group_824" data-name="Group 824" transform="translate(48.432 171.367)">
          <g id="Group_823" data-name="Group 823">
            <g id="Group_822" data-name="Group 822">
              <g id="Group_821" data-name="Group 821">
                <g id="Group_820" data-name="Group 820">
                  <path id="Path_1029" data-name="Path 1029" d="M87.788,135.4c0,.139-11.109.266-24.793.266s-24.805-.114-24.805-.266,11.1-.266,24.805-.266S87.788,135.257,87.788,135.4Z" transform="translate(-38.19 -135.13)" fill="#455a64"/>
                </g>
              </g>
            </g>
          </g>
        </g>
        <g id="Group_829" data-name="Group 829" transform="translate(46.72 165.837)">
          <g id="Group_828" data-name="Group 828">
            <g id="Group_827" data-name="Group 827">
              <g id="Group_826" data-name="Group 826">
                <g id="Group_825" data-name="Group 825">
                  <path id="Path_1030" data-name="Path 1030" d="M88.15,131.036c0,.14-11.49.266-25.655.266s-25.655-.114-25.655-.266,11.477-.266,25.655-.266S88.15,130.9,88.15,131.036Z" transform="translate(-36.84 -130.77)" fill="#455a64"/>
                </g>
              </g>
            </g>
          </g>
        </g>
      </g>
    </g>
  </g>
</svg>
