<svg xmlns="http://www.w3.org/2000/svg" width="1419.24" height="813.995" viewBox="0 0 1419.24 813.995">
  <path id="Union_4" data-name="Union 4" d="M-12585.542-2732.005v-407.945h2.959l-.055-230.5c-1.764-3.51-.439-6.517-3.158-9.621-1.511-1.749-10.977-3.251-17.969-4.28q-.29-2.186-.665-4.325a49.1,49.1,0,0,0,7.2.274c3.051-.113,5.8-.314,8.729-2.86.3-.259.589-.529.864-.807-4.564-6.22-10.91-14.888-12.782-15,.089.508.181,1.026.272,1.549.466,2.736.83,5.559.225,7.078.456,3.062.6,5.925-.808,6.633-2.218,1.136-8.6-2.984-10.2-9.244a9.384,9.384,0,0,1,.1-5.292c-.035-.125-.07-.249-.1-.373-.935-3.7.326-5.884,1.179-8.149-1.851-2.6-8.291-7.261-13.242-10.767q.831-2.055,1.564-4.113c1.105.716,2.233,1.4,3.432,2.053-1.686-1.249-3.415-2.487-5-3.6q.831-2.054,1.564-4.113a46.46,46.46,0,0,0,6.216,3.434c2.753,1.249,5.281,2.293,9.124,1.343,3.931-.956,7.062-3.349,10.523-5.31,3.878-2.2,8.643-4.8,13.021-5.29a14.052,14.052,0,0,1,3.564.03,4.313,4.313,0,0,1-.444-3.4c2.23-2.323,4.647-2.626,8.861-1.168,5.816,2.009,10.615,5.95,16.518,7.645-3.247-3.237-15.038-15.418-14.259-24.685.139-1.57.4-4.317,3.225-5.559s7.34-.917,10.527.876c4.508,2.531,3.323,6.294,8.4,19.406,1.957,5.066,4.258,9.884,4.241,9.844a16,16,0,0,1-1.22-5.019c-.228-1.954-.922-4.021-.31-5.83a3.389,3.389,0,0,1,2.366-2.119c-2.414-1.245-4.413-2.5-5.187-3.543-1.542-2.089-2.711-4.88-1.412-7.108a4.8,4.8,0,0,1,2.9-2.115c.481-.131,4.268-.519,4.413-.095-.311-.964-5.266-3.952-6.435-4.639-1.035-.621-15.586-13.843-16.622-22.35a6.674,6.674,0,0,1,.032-1.983c1.476-3.142,3.168-3.832,6.215-2.579,4.2,1.713,7.8,5.958,12.048,7.265-2.452-3.558-11.366-17.01-11.243-28.526.02-1.969.079-5.366,2.027-7.284a5.756,5.756,0,0,1,7.5-.292c3.3,2.528,2.636,7.316,6.84,22.8,1.5,5.516,3.192,10.724,3.428,11.484a30.6,30.6,0,0,1-1.077-5.928c-.067-.632-.155-1.275-.247-1.918a18.18,18.18,0,0,1-.251-5.215c.564-3.792,4.186-4.742,6.444-1.465,2.794,4.025,3.3,9.708,3.95,14.46.8,5.833,1.309,11.729,1.862,17.569-.057-2.213-.272-4.5-.307-6.692-.029-2.03.307-3.97.228-6.038-.1-2.348.938-6.765,3.688-4.979,2.658,1.728,3.558,8.036,3.862,10.359,1.286,9.482,3.307,25.181,4.5,25.466.488.117.823-2.243,1.188-5.176-2.3-7.766-4.356-15.823-3.938-18.807.532-3.857,2.177-7.536,5.788-6.849a10.5,10.5,0,0,1,5.145,3.412c.624.687,4.92,6.662,4.638,7.166.656-1.209-1.4-11.221-1.894-13.565-.479-2.25-2.116-39.762,7.777-42.618,4.717.4,7.152,2.743,9.016,8.529,2.566,7.981,1.938,16.527,4.958,24.333,1.115-6.275,5.689-29.418,17.537-36.529,2.016-1.206,5.548-3.288,9.479-1.308s7.407,7.107,7.98,12.083c.814,7.02-4.745,8.975-16.207,25.688-4.429,6.458-8.269,13.069-8.233,13.018a24.293,24.293,0,0,1,5.012-5.621c2.157-1.921,4.058-4.441,6.767-5.34,4.457-1.479,9.107,3.817,8.094,9.632-1.238,7.108-6.507,11.571-10.683,15.655-5.145,5.007-10.622,9.591-15.988,14.234,2.177-1.509,4.309-3.332,6.5-4.767,2.033-1.348,4.355-2.005,6.373-3.466,2.3-1.662,7.838-2.769,8.846,2.871.956,5.435-4.553,10.936-6.6,12.916-8.354,8.145-22.271,21.426-21.326,23.566.456,1.041,4.359-.562,8.623-2.166.928-.351,1.875-.7,2.807-1.022a17.651,17.651,0,0,1,4.47-2.886c2.62-.8,5.424-.749,5.9,2.122a9.28,9.28,0,0,1-.9,4.814c-.278.672-3.075,5.644-3.446,5.6.9.179,6.853-4.445,8.243-5.53.9-.7,11.791-6.619,20.243-8.605a5.029,5.029,0,0,1,.716-4,3.762,3.762,0,0,1,3.054-1.633,14.339,14.339,0,0,1,1.765-2.962c-4.162-4.69-9.614-11.188-10.3-14.128a15.281,15.281,0,0,1-.3-1.669c-.3-2.462.063-4.953,1.974-6.176a5.322,5.322,0,0,1,3.973-.526c.561.113,4.679,1.833,4.647,2.33.076-1.18-3.773-6.841-4.683-8.171-.878-1.264-11.664-25.9-6.479-33.293,2.931-2.331,5-2.068,7.622.833,3.624,4.007,5.465,10.195,9.326,13.843-.976-4.873-4.282-23.161.96-34.539.881-1.943,2.472-5.285,5.335-6.111s6.295.756,7.939,3.81c2.318,4.346-.5,8.715-3,26.416-.944,6.68-1.5,13.127-1.533,13.4a31.7,31.7,0,0,1,1.523-6.574c.8-2.492,1.264-5.264,2.664-7.368,2.284-3.458,6.447-2.421,7.369,2.083,1.114,5.533-.865,11.454-2.3,16.531-.829,2.937-1.732,5.852-2.664,8.748a5.365,5.365,0,0,1,1.173-.449,25.132,25.132,0,0,0,1.2-2.509c.938-2.393,3.985-6.21,6.038-2.93,1.686,2.677.615,7.915-.177,10.987.23.534.437,1.074.62,1.611.343,1.03,2.161,9.321,1.647,9.672,1.22-.793,3.517-11.878,4.026-14.494.5-2.5,15.432-40.715,27.014-38.114,4.727,3,6.212,6.659,5.592,13.426-.865,9.348-5.335,17.493-5.646,26.909,3.947-5.621,18.96-26.127,34.477-26.689,2.639-.1,7.239-.216,10.461,3.894a19.612,19.612,0,0,1,2.959,16.393c-.1.34-.216.661-.34.964,2.661,2.027,3.063,6.582,8.465,16.129.562.994,1.141,1.969,1.7,2.886a8.988,8.988,0,0,1,1.471-.771,7.616,7.616,0,0,1-.364-3.949c.8-3.327,6.272-5.135,9.8-3.021a11.125,11.125,0,0,1,4.508,5.424,14.614,14.614,0,0,1,3.922.529c-3.405-4.811-6.386-10.87-4.982-16.192a7.7,7.7,0,0,1,4.571-5.778,15.889,15.889,0,0,1,9.874-.376,8.013,8.013,0,0,1,1.125-.57,15.53,15.53,0,0,1,11.664.321c4.306,2.166,2.877,5.643,5.439,16.568a6.582,6.582,0,0,1,3.114,1.669c.146.146.285.292.415.442a5.31,5.31,0,0,1,.308-.694c1.628-3.046,7.4-3.547,10.276-.69,3.514,3.5,3.2,8.182,3.244,12.1q.028,1.748-.016,3.5a9.356,9.356,0,0,1,1.09,2.963,12.114,12.114,0,0,0,.719-2.378c.3-1.819,2.525-5.062,6.045-4.011a8.729,8.729,0,0,1,.6-2.557c1.166-2.356,3.121-4.255,5.664-2.626a9.851,9.851,0,0,1,3.118,3.9c.329.65,2.271,5.972,1.985,6.2.755-.5,1.232-7.762,1.341-9.46.1-1.651,6.456-26.843,14.354-25.514,3.405,1.79,4.729,4.113,4.948,8.521a30.159,30.159,0,0,1-.231,5.052.512.512,0,0,1,.07.014c2.176.541,3.313,2.341,4.229,4.449.566-.727,1.172-1.458,1.809-2.177-.285-7-.456-16.225.713-18.581s3.12-4.255,5.667-2.626a9.872,9.872,0,0,1,3.114,3.9c.33.65,2.271,5.972,1.989,6.2.751-.5,1.229-7.762,1.337-9.46.1-1.651,6.457-26.843,14.354-25.514,3.408,1.79,4.727,4.113,4.948,8.521a35.554,35.554,0,0,1-.476,6.882c1.813-2.349,2.734-3.7,2.734-3.7s5.325-81.361,726.535-1.187a43.9,43.9,0,0,1,5.791-4.032,2.746,2.746,0,0,1-.89-.132,4.628,4.628,0,0,1,1.261-.084,56.871,56.871,0,0,1,6.552-3.2,39.747,39.747,0,0,1,13.594-3.317c4.337-.157,8.046.278,11.537,2.447l.346-.091a2.125,2.125,0,0,1,.621-.143,3.842,3.842,0,0,1-.6.227c-.079.025-.162.055-.251.08.26.165.517.336.771.519a6.787,6.787,0,0,1,1.916,5.522,14.074,14.074,0,0,1-1.979,5.639,40.263,40.263,0,0,1-12.254,13c0,.453-.01.705-.048.708a1.785,1.785,0,0,1-.13-.588c-.5.354-1.017.7-1.536,1.034,3.181,3.455,6.837,7.287,10.907,11.319a51.206,51.206,0,0,1,.694-12.649.723.723,0,0,1-.172.062c-.006,0-.009,0-.013,0s.063-.08.206-.187a72.705,72.705,0,0,1,2.078-8.617,26,26,0,0,1,3.913-8.437c-.285-1.147-.555-2.166-.792-3.046-.33-1.246-.583-2.229-.761-2.934-.076-.314-.14-.566-.19-.767-.037-.179-.05-.263-.05-.263a1.262,1.262,0,0,1,.1.249c.063.193.14.445.241.755.2.706.494,1.677.861,2.912.241.825.511,1.768.8,2.827.028-.036.06-.073.089-.109a11.552,11.552,0,0,1,8.736-4.478c3.425.037,6.888,2.466,7.2,5.7.054-.015.1-.033.159-.048.021-6.659.066-10.7.13-10.91q-13.068-7.287-26.13-14.567-2.319,3.962-4.632,7.934c-.117.19-.269.409-.494.431-.013,0-.025,0-.038,0-.234,0-.415-.219-.545-.413q-6.324-9.166-12.646-18.332a1.566,1.566,0,0,1-.117-.171.238.238,0,0,0-.021-.033l0,0a1.157,1.157,0,0,1-.066-.165c-.178-.61.3-1.2.776-1.651a30.428,30.428,0,0,1,6.985-5.07c-.267,0-.406-.011-.406-.033a3.46,3.46,0,0,1,.57-.069c.013,0,.022,0,.035,0a30.6,30.6,0,0,1,16.122-3.47,27.931,27.931,0,0,1,7.771,1.669c.016-.165.035-.256.066-.256s.076.113.124.325a25.665,25.665,0,0,1,13.115,10.643c4.121,6.918,4.355,16.039-.127,22.741a.239.239,0,0,0,0,.047,2.192,2.192,0,0,1-.013.541c-.025,0-.047-.157-.082-.453-.082.117-.161.233-.244.351.063.167.13,4.186.193,10.833,2.921-.592,6.669,1.9,8.335,4.248,1.752,2.491,2.17,5.592,2.259,8.587.041,1.315.022,2.634-.044,3.945.171.19.253.3.234.318s0,0-.007,0a.813.813,0,0,1-.24-.146,50.219,50.219,0,0,1-5.465,19.91c.019.044.025.073.019.077h-.006a.082.082,0,0,1-.041-.025,52.125,52.125,0,0,1-4.812,7.681q.009,2.931.013,5.76,2.637,2.12,5.369,4.2c.042-.537.089-1.078.137-1.618.494-5.293,1.217-10.312,2.053-14.848.481-2.254.874-4.419,1.406-6.407.257-.993.481-1.965.726-2.89.267-.909.52-1.793.773-2.633.469-1.687.988-3.185,1.444-4.489.229-.661.443-1.271.634-1.833.215-.552.418-1.056.611-1.52.247-.613.466-1.139.646-1.581,1.286-8.529,4.036-18.53,11.516-23.413a22.431,22.431,0,0,1,7.121-2.969c.472-.665.808-1.07.881-1.03s-.082.38-.364.913a33.168,33.168,0,0,1,14.845.512,48.822,48.822,0,0,1,6.6,2.214,40.475,40.475,0,0,0-15.521-11.642,6.592,6.592,0,0,1-2.88-1.83,3.577,3.577,0,0,1-.459-2.6c.538-3.777,4.251-6.856,8.4-8.1s8.648-.975,12.919-.321c14.6,2.228,23.148,14.19,26.269,26.58a82.037,82.037,0,0,1,1.645,8.587c.11-.676.222-1.3.326-1.863,2.3-12.145,10.59-24.589,20.629-33.125,7.262-6.169,19.211-10.964,24.85-.387,3.741,7.017,1.353,15.531-3.529,21.528-3.439,4.241-7.8,7.8-11,12.211-6.161,8.5-5.331,19.008-9.69,28.161-1.854,3.9-5.424,7.458-9.912,7.893q-.847,10.35-1.379,20.718-.1,1.861-.179,3.724c.314-.067.637-.119.963-.156a12.191,12.191,0,0,1,1-3.691,24.331,24.331,0,0,1,11.733-11.871c.086-.4.175-.8.267-1.2a64.347,64.347,0,0,1,4.131-12.558c.38-.818.785-1.618,1.223-2.407-1.321-1.03-2.227-2.893-2.284-6.176-.11-6,3.741-7.554,7.109-9.65s7.464-2.864,11.461-3.145a42.159,42.159,0,0,1,12.593,1.078c.092,0,.184.007.279.007-.079,0-.158,0-.238,0a21.24,21.24,0,0,1,9.688,5.015c.006,0,.013,0,.019,0a19.034,19.034,0,0,1,6.52,7.867c1.642,4,.83,9.037-2.5,11.882-2.579,2.2-6.231,2.86-9.662,2.663a10.976,10.976,0,0,1-4.819-1.22c-3.668-2.1-4.521-6.779-6.589-10.4a15.76,15.76,0,0,0-4.109-4.642q-.716.614-1.381,1.274c-2.721,2.688-5.319,6.155-9.19,6.487-2.138.179-4.574.365-6.4-.712-.256.475-.5.953-.741,1.439a59.389,59.389,0,0,0-4.1,11.794q-.277,1.118-.529,2.246a23.712,23.712,0,0,1,9.459-2.056c3.531-.016,10.744,2.179,16.306,7.061,2.038-3.3,4.379-5.523,6.875-5.1,3.408,1.79,4.727,4.116,4.945,8.521.3,6.071-1.9,11.5-1.255,17.616,2.084-3.755,10.138-17.51,20.338-18.357,1.743-.136,4.771-.365,7.274,2.2a13.4,13.4,0,0,1,3.478,10.52c-.823,4.887-5.315,4.357-17.173,11.655-2.636,1.629-5.139,3.349-6.783,4.511.935-.212,1.813-.424,2.643-.625.082-.021.165-.044.247-.069,1.752-.5,3.459-1.381,5.335-1.381,1.992-.555,3.066-.9,3.066-.9v1.976a6.572,6.572,0,0,1,1.714,7.922,9.957,9.957,0,0,1-1.714,2.261v451.5h-1265v223.8ZM-11271.18-3412c.045-1.952-.3-4,.481-5.84a4.573,4.573,0,0,1,4.752-2.524,16.577,16.577,0,0,1,.823-5.3c1.169-2.356,3.124-4.255,5.671-2.626a9.867,9.867,0,0,1,3.114,3.9c.333.65,2.271,5.972,1.989,6.2.751-.5,1.229-7.762,1.337-9.46a39.774,39.774,0,0,1,1.126-4.692,7.314,7.314,0,0,1-3.553-3.413,28.461,28.461,0,0,1-1.159-4.211,9.9,9.9,0,0,0-.681-1.7c-4.071,3.035-6.865,7.371-11.339,9.994a14.158,14.158,0,0,1-5.886,1.764q-.183,2.286-.332,4.574c.32,2.312.773,5.132,1.549,8.611.371,1.657.777,3.283,1.157,4.719Zm-1171.431-2.864q3.873.094,7.793.172c-.031-.189-.063-.383-.092-.573-.222-1.417-.443-2.9-.637-4.423C-12437.881-3418.036-12440.326-3416.586-12442.61-3414.862Zm1105.208-45.628a27.509,27.509,0,0,1,8.249,14.859c0,.007.006.011.006.015l0,0c.1.519.181,1.041.244,1.563.086.679.143,1.359.181,2.038,3.231,2.765,4.232,6.279,3.7,12.046a62.815,62.815,0,0,1-2.512,11.641q3.729,1.26,7.5,2.283a59.149,59.149,0,0,1,12.146-9.9c-.431-2.939-.892-5.874-1.413-8.8-11.662-.022-11.561-10.158-14.462-13.65-4.749-5.724-5.572-13.47-9.4-19.713a11.6,11.6,0,0,0-4.309.95,24.8,24.8,0,0,0-4.643,3.1A28.881,28.881,0,0,1-11337.4-3460.49Zm-1172.062,41.658a10.843,10.843,0,0,1,.3,1.582c.213.007.422.019.637.029-1.605-3.371-3.9-6.216-5.876-9.372-1.341-2.13-2.772-4.475-4.021-6.944q-.29-.011-.58-.011a17.718,17.718,0,0,1,2,6.147c.342,2.061.731,4.475,1.152,6.922a15.658,15.658,0,0,1,1.848-.117C-12511.944-3420.6-12510.322-3420.088-12509.464-3418.832Zm189.381-6.184c-5.123,1.779-9.923,3.912-9.9,3.908a15.862,15.862,0,0,1,5.2-1.016c.44-.029.884-.077,1.33-.132a10.993,10.993,0,0,1,4.179-2.362c.713-.256,6.5-1.618,6.71-1.33a4.963,4.963,0,0,0-2.122-.764C-12316.3-3426.254-12318.094-3425.7-12320.083-3425.016Zm-207.958.581c.054.019.108.036.158.051-.041-1.23-.107-2.476-.06-3.66.06-1.644.649-3.148.637-4.833a3.946,3.946,0,0,1,.076-.789,14.072,14.072,0,0,1-1.876-.43C-12528.665-3430.871-12528.357-3427.646-12528.041-3424.435Zm144.877-.431c2.94-.322,5.959-.932,8.89-1.18a26.69,26.69,0,0,1,3.82.059,23.479,23.479,0,0,0,4.353,0c.042,0,.083-.011.124-.015.215-.964.438-1.932.662-2.878C-12371.239-3427.379-12377.233-3426.159-12383.164-3424.866Zm1074.5-10.048c.512,2.864.967,5.739,1.393,8.615a26.033,26.033,0,0,1,9.572-3.334q-.485-12.246-1.8-24.443-.209-1.956-.437-3.916c-.155.08-.311.157-.472.234a16.46,16.46,0,0,1-7.042-2.7C-11304.136-3452.14-11300.613-3439.36-11308.663-3434.914Zm-60.762-14.629c-.418,2.546-.757,5.3-.981,8.2a195.061,195.061,0,0,0,22.632,14.2c.133-.234.263-.467.4-.7a42.538,42.538,0,0,1-4.8-3.137,54.325,54.325,0,0,1-15.536-19.184c-.387-.774-.764-1.571-1.1-2.378C-11369.022-3451.584-11369.225-3450.58-11369.425-3449.543Zm94.142,20.784q.042-.55.087-1.1l-.234.007Q-11275.357-3429.334-11275.283-3428.759Zm-1077.959-3.558a9.314,9.314,0,0,1,.038,2.977c.4-.153,1.108-1.8,1.793-3.664C-12352.017-3432.759-12352.628-3432.533-12353.242-3432.317Zm1061.557,2.823c.041-.343.095-.687.168-1.026.339-1.592.934-4.369,3.671-5.749a8.138,8.138,0,0,1,1.354-.532c.018-.37.034-.739.053-1.109q.579-11.9,1.564-23.789a22.032,22.032,0,0,1-9.178-10.559c.1,5.161-.583,11.158-5.445,14.022q1.715,14.042,2.29,28.184l.015.367q.5-.045,1-.064c.4-.013.854-.027,1.338-.027A15.924,15.924,0,0,1-11291.686-3429.494Zm-1286.1-5.753c1.043.362,1.777.993,1.784,2.02,0,.069,0,.139-.007.211,1.021-.3,2.082-.6,3.155-.9a46.063,46.063,0,0,1-3.434-3.448A6.055,6.055,0,0,1-12577.781-3435.247Zm1210.5-45.865c-.168.467-.355.972-.562,1.534-.177.563-.38,1.184-.595,1.845-.432,1.315-.926,2.813-1.369,4.5-.24.84-.481,1.724-.734,2.637-.216.92-.444,1.892-.685,2.886-.51,1.987-.887,4.142-1.359,6.4-.811,4.525-1.521,9.529-2.015,14.811-.057.65-.111,1.3-.161,1.943q1.91,1.447,3.858,2.864c.231-2.794.573-5.458.994-7.919.257-1.286.517-2.517.792-3.682a13.121,13.121,0,0,1-.918-7.455c.772-3.594,5.249-7.042,9-6.107.732-1.615,2.55-1.773,4.442-1.65a6.465,6.465,0,0,1,.148-.72c.82-3.09,3.611-5.5,6.77-6.611a15.84,15.84,0,0,1,2.778-.7c-.212.007-.422.015-.637.029,2.471-1.757,23.06-3.569,27.488-1.114a23.556,23.556,0,0,1,3.275,2.166c-1.169-5.328-1.329-10.848-2.434-16.188l-.312.095c.168.127.253.2.243.215s0,0-.009,0a1.742,1.742,0,0,1-.381-.179,67.832,67.832,0,0,1-16.062,2.729c-2.331.106-4.7.1-7.045.227.054.044.079.073.072.084s-.006,0-.016,0a.8.8,0,0,1-.231-.081,27.61,27.61,0,0,0-8.312,1.527,31.96,31.96,0,0,0-3.7,1.76,20.24,20.24,0,0,1-7.951,2.3l-3.748.3c-.051.12-.082.182-.095.182a.542.542,0,0,1,.031-.175h-.01C-11366.881-3482.23-11367.067-3481.711-11367.279-3481.112Zm-1142.2,35.292a24.248,24.248,0,0,0,1.809,2.132c-.27-.84-.652-2.012-1.112-3.426A12.6,12.6,0,0,0-12509.482-3445.82Zm181.282-.092a36.277,36.277,0,0,0,8,.961,68.171,68.171,0,0,1-6.827-4.7A33.253,33.253,0,0,1-12328.2-3445.912Zm-203.29.76a16.677,16.677,0,0,0,3.006-.551c-.871-.358-2.427-.972-4.273-1.735A13.818,13.818,0,0,1-12531.49-3445.152Zm182.436-12.806c-7.384,3.938-14.227,8.354-14.344,8.423a25.483,25.483,0,0,1,7.7-2.845c3.089-.712,6.21-2.2,9.412-1.6a6.6,6.6,0,0,1,4.227,2.9,36.68,36.68,0,0,1,6.646-7.353,15.466,15.466,0,0,1-2.158-5.106C-12340.792-3462.119-12344.581-3460.344-12349.055-3457.958Zm965.584,6.5c.767.635,1.546,1.271,2.328,1.9-.007-1.527-.013-3.083-.02-4.657Q-11382.268-3452.8-11383.471-3451.457Zm146.2-35.3c.146,0,.2,0,.148,0C-11237.14-3486.755-11237.19-3486.755-11237.267-3486.759Z" transform="translate(12623 3546)" fill="#87bee2" opacity="0.166"/>
</svg>
