<svg xmlns="http://www.w3.org/2000/svg" width="2025.825" height="2755.185" viewBox="0 0 2025.825 2755.185">
  <path id="Union_8" data-name="Union 8" d="M-12623-790.815v-1920h.13a4.55,4.55,0,0,1-.021-1.781,4.814,4.814,0,0,1,2.066-3.026c.413-.286,3.886-1.845,4.166-1.46-.61-.876-6.3-2.356-7.636-2.686-1.179-.3-19.027-8.966-23.019-17.145a7.793,7.793,0,0,1-.724-2.232c.374-3.619,1.759-4.842,5.066-4.518,4.557.422,9.366,3.588,13.834,3.591-3.493-2.823-16.374-13.617-20.028-25.257-.622-1.984-1.679-5.426-.454-7.959a5.525,5.525,0,0,1,7.036-2.613c3.966,1.53,4.9,6.556,13.964,20.847,3.231,5.1,6.556,9.83,7.022,10.512a34.033,34.033,0,0,1-2.969-5.642c-1.013-2.314-2.391-4.616-2.807-7.032-.705-3.991,2.426-6.064,5.648-3.464,3.972,3.191,6.318,8.757,8.49,13.344,2.673,5.623,5.076,11.4,7.518,17.116-.78-2.213-1.73-4.448-2.482-6.645-.692-2.035-1-4.093-1.756-6.153-.863-2.333-1.324-7.1,1.876-6.153,3.093.921,6.014,7,7.062,9.239,2.226,4.708,5.175,11.014,7.68,16.014a13.911,13.911,0,0,1,4.3,2.292c-.355-1.781-.755-3.73-1.044-5.493-5.7-8.3-12.716-19.037-13.443-22.964-.755-4.048-.394-8.261,3.268-8.683a6.069,6.069,0,0,1,1.714.086c-3.4-2.565-6.4-5.426-7.766-8.233a7.7,7.7,0,0,1-.724-2.232c.374-3.619,1.756-4.842,5.067-4.518a22.024,22.024,0,0,1,5.175,1.311c-.851-2.524-1.774-5.461-2.647-8.56-3.643-4.219-7.1-9.236-8.722-14.417-.623-1.984-1.68-5.426-.454-7.959a5.481,5.481,0,0,1,6.178-2.873,6,6,0,0,1,2.149-3.378c4.62-1.051,7.7.552,11.37,5.8a71.261,71.261,0,0,1,5.816,10.792c.2.425.4.851.6,1.273a5.427,5.427,0,0,1,1.784.99,18.6,18.6,0,0,1,3.756,4.258c-1.061-10.042-1.765-27.816,5.448-36.55,1.521-1.832,4.2-5.023,8.585-4.242a10.49,10.49,0,0,1,1.156.276c-.622-5.893-.143-10.76,2.489-12.6,4.616-1.051,7.7.552,11.366,5.8a71.018,71.018,0,0,1,5.819,10.792c1.984,4.245,3.963,8.48,6.858,12.182-.994-6.661-4.214-31.384,4.728-42.211,1.521-1.832,4.2-5.023,8.585-4.242s9.369,4.867,11.541,9.7c2.9,6.442-1.08,10.087-6.109,27.644a8.3,8.3,0,0,1,1.594,1.254,7.921,7.921,0,0,1,1.794,2.788c3.772-2.531,9.693,1.33,10.611,7.372.742,4.886-.486,9.179-2.162,13.065,1.742-.851,4.07.022,5.588,2.765,2.873,5.229,2.927,11.8,3.219,17.361.194,3.638.292,7.28.355,10.912a5.714,5.714,0,0,1,.73-.756,37.7,37.7,0,0,0,.537-4.239c.11-2.7,1.756-7.483,4.784-4.816,2.648,2.324,3.261,8.556,3.471,11.766.492.555.955,1.143,1.384,1.737.66.93,5.1,8.722,4.73,9.229.9-1.175-.539-13.046-.914-15.84a33.263,33.263,0,0,1,.006-3.407c-1.089-2.385-1.556-5-.143-6.82a4.019,4.019,0,0,1,.578-.6c.188-2.276.432-4.772.752-7.356-2.781-2.9-19.1-22.628-16.726-31.206,2.026-3.251,4.077-3.626,7.525-1.515,4.756,2.918,8.53,8.579,13.4,11.058-2.521-4.607-11.651-22-10.392-35.083.2-2.226.623-6.086,3.077-7.8s6.232-1.184,8.8,1.384c3.625,3.657,2.378,8.931,5.788,27.533.479,2.6,1,5.163,1.463,7.363.267.089.53.187.781.286-.006-.248-.01-.5-.016-.768-.054-2.756-.521-5.693.124-8.245,1.038-4.188,5.337-4.429,7.689-.178,2.87,5.229,2.924,11.8,3.22,17.361.193,3.638.288,7.28.352,10.912a5.906,5.906,0,0,1,.73-.756,37.692,37.692,0,0,0,.54-4.239c.107-2.7,1.756-7.483,4.784-4.816,1.826,1.6,2.684,5.073,3.108,8.121a48.568,48.568,0,0,1,5.731-8.137c.755-12.9,3.832-39.077,13.049-39.823,5.477,1.556,8.09,4.785,9.712,11.792,2.238,9.684.65,19.266,3.436,28.848,1.914-6.88,9.483-32.175,24.057-37.537,2.479-.908,6.813-2.451,11.223.692,3.884,2.769,7.122,8.271,7.973,13.5a7.044,7.044,0,0,1,4.229-.508c4.381.781,9.369,4.867,11.54,9.7,2.506,5.556-.117,9.036-4.111,21.161,2.636-2.857,5.75-5.115,9.271-5.737,1.721-.3,4.718-.8,7.451,1.686a14.724,14.724,0,0,1,4.433,10.792c-.007.086-.013.172-.022.254,1.264-.372,2.718.041,4.581,1.184,4.172,2.556,7.585,7.22,11.643,10a8.321,8.321,0,0,1,.921-.5c-3.258-6.172-10.7-21.631-9.554-33.524.2-2.226.622-6.086,3.077-7.8s6.232-1.184,8.8,1.384c3.625,3.657,2.374,8.931,5.787,27.533,1.286,7.007,2.861,13.665,2.928,13.97a35.468,35.468,0,0,1-.7-7.09c-.055-2.756-.521-5.693.12-8.245,1.042-4.188,5.341-4.429,7.693-.178,2.87,5.229,2.924,11.8,3.219,17.361.194,3.638.289,7.28.353,10.912a5.653,5.653,0,0,1,.73-.756,37.7,37.7,0,0,0,.536-4.239c.111-2.7,1.76-7.483,4.788-4.816,2.645,2.324,3.258,8.556,3.471,11.766.488.555.952,1.143,1.381,1.737.66.93,5.105,8.722,4.73,9.229.9-1.175-.54-13.046-.911-15.84-.337-2.67,1.353-45.773,13.218-46.732,5.477,1.556,8.086,4.785,9.709,11.792,2.238,9.684.653,19.266,3.438,28.848,1.914-6.88,9.483-32.175,24.056-37.537,2.48-.908,6.813-2.451,11.221.692s7.981,9.8,8.182,15.592c.267,8.191-6.41,9.128-21.45,25.52-5.724,6.236-10.778,12.785-10.883,12.916a24.494,24.494,0,0,1,6.391-5.242c2.7-1.673,5.185-4.137,8.427-4.521a6.449,6.449,0,0,1,4.492,1.257c1.994-7.039,5.026-13.881,9.09-13.516,3.56,1.591,5.09,3.924,5.715,8.56.5,3.775.121,7.391-.028,11.039a28.439,28.439,0,0,1,1.353,4.394c.057.241.111.486.162.727,2.721-5.877,8.887-17.094,17.455-18.608,1.721-.3,4.719-.8,7.449,1.686a14.826,14.826,0,0,1,4.016,6.956,10.42,10.42,0,0,1,9.633,1.238,21.339,21.339,0,0,1,7.131,10.182c-.155-4.467.556-8,2.712-9.512,4.619-1.051,7.705.552,11.369,5.8a70.916,70.916,0,0,1,5.816,10.792c1.984,4.248,3.963,8.483,6.861,12.182-.994-6.661-4.217-31.384,4.725-42.211,1.523-1.832,4.2-5.02,8.585-4.242s9.372,4.87,11.544,9.7c3.073,6.823-1.571,10.506-7.007,30.886-.849,3.181-1.6,6.356-2.187,9.007a9.88,9.88,0,0,1,.889.632c.206-.387.422-.784.654-1.2,1.422-2.6,2.406-5.728,4.689-7.468,3.574-2.734,9.331.67,10.68,6.331.88-4.893,2.467-9.4,5.153-12.649,1.523-1.832,4.2-5.02,8.585-4.242a14.611,14.611,0,0,1,6.354,3.127,70.044,70.044,0,0,1-2.149-7.325c-.705-.051-1.4-.124-2.086-.229-2.061-.311-5.613-.87-7.356-3.083a5.522,5.522,0,0,1,.736-7.468c1.622-1.508,3.737-1.86,7.772-2.118.264-2.238.879-5.235,2.962-6.689,2.454-1.718,6.232-1.187,8.8,1.381a8.84,8.84,0,0,1,2.279,4.334c.972-.1,1.984-.2,3.048-.321,6-.667,11.706-1.581,12.525-1.7a33.942,33.942,0,0,1-6.372.194c-2.524-.1-5.2.124-7.55-.559-3.9-1.118-4.388-4.839-.639-6.6,4.61-2.172,10.64-1.842,15.717-1.778,6.226.06,12.478.435,18.678.746-2.327-.27-4.756-.394-7.062-.686-2.13-.267-4.117-.889-6.3-1.115-2.477-.248-6.963-1.924-4.705-4.385,2.182-2.378,8.922-2.337,11.4-2.3,3.171.038,6.991.1,10.76.121.229-1.222.46-2.419.7-3.639-8.886,1.226-18.442,2.223-21.687,1.324-3.972-1.1-7.6-3.267-6.375-6.743.638-1.756,2.4-3.372,4.292-4.591.81-.518,7.674-3.889,8.163-3.537-1.178-.825-11.963-.27-14.487-.124-2.429.146-42-3.766-43.614-13.982,1.079-4.61,3.873-6.68,10.2-7.674a71.5,71.5,0,0,1,12.249-.5c4.688.079,9.362.159,13.96-.822-6.427-2.029-30.058-9.969-35.867-22.752-.981-2.172-2.674-5.979-.051-9.576s8.483-6.29,13.779-6.121c7.477.226,8.753,6.017,24.688,19.834,6.153,5.334,12.551,10.112,12.5,10.071a25.222,25.222,0,0,1-5.2-5.791c-1.718-2.419-4.1-4.674-4.66-7.487-.931-4.632,5.273-8.458,11.229-6.6,7.28,2.276,11.229,8.15,14.929,12.884,4.537,5.833,8.582,11.935,12.7,17.932-1.276-2.378-2.892-4.756-4.092-7.134-1.127-2.213-1.5-4.613-2.747-6.826-1.422-2.524-1.815-8.169,4.239-8.334,4.337-.108,8.213,3.327,10.655,6.048q3.5-8.868,7.629-17.542c-2.562-.1-5.029-.838-6.022-2.861a5.026,5.026,0,0,1,0-4.01c.193-.54,2.571-4.366,3.086-4.261-1.226-.251-7.7,2.727-9.217,3.432-1.448.683-28.781,7.734-35.816,1.508-2.035-3.245-1.471-5.251,1.937-7.423,4.705-3,11.448-3.908,15.811-7.2-5.244.248-24.882.825-36.086-6.039-1.911-1.159-5.2-3.226-5.664-6.185s1.667-6.121,5.1-7.3c4.88-1.654,9.071,1.781,27.286,6.867,6.864,1.918,13.537,3.419,13.843,3.492a35.408,35.408,0,0,1-6.684-2.479c-2.5-1.156-5.344-2.026-7.354-3.721-3.308-2.772-1.645-6.743,3.21-6.991,5.96-.289,11.891,2.543,17.015,4.715,3.355,1.422,6.671,2.93,9.963,4.467a5.722,5.722,0,0,1-.358-.988,37.74,37.74,0,0,0-3.575-2.343c-2.378-1.28-5.956-4.858-2.229-6.41,3.248-1.359,9.118.822,12.1,2.038.715-.2,1.445-.356,2.166-.483,1.127-.184,10.074-.765,10.369-.206-.664-1.324-11.963-5.232-14.634-6.121-2.552-.87-40.55-21.282-36.21-32.369,3.8-4.239,7.843-5.169,14.855-3.556,9.684,2.232,17.6,7.858,27.432,9.553-5.344-4.734-24.762-22.625-23.189-38.074.27-2.629.784-7.2,5.54-9.782s12.306-2.876,17.6-.518c7.478,3.35,5.392,9.76,13.532,30.464,3.1,7.877,6.766,15.294,6.839,15.446a24.593,24.593,0,0,1-1.911-8.042c-.318-3.166-1.445-6.474-.369-9.553a6.439,6.439,0,0,1,3.1-3.489c-5.452-4.877-10.271-10.6-8.163-14.094,2.99-2.5,5.759-2.854,10.2-1.387,6.1,2.029,10.688,6.143,16.964,7.861-2.965-3.372-13.678-16.113-10.861-25.958.492-1.673,1.35-4.591,4.781-5.956a14.727,14.727,0,0,1,11.646.746c4.533,2.626,2.4,6.617,5.368,20.453,1.152,5.337,2.721,10.4,2.721,10.385a15.053,15.053,0,0,1-.343-5.3c.146-2.07-.2-4.261.857-6.185,1.74-3.166,7.524-3.5,10.3-.372,3.384,3.826,2.892,8.769,2.794,12.925-.036,1.862-.134,3.726-.266,5.589,36.444-55.941,91.832-57.668,138.41-140.442,65.651-116.647-5.441-182.4,34.248-269.927,81.98-180.8,532.133-224.177,823.374-134.227,149.851,46.3,273.133,125.5,256.383,276.346,76.578,121.594,98.993,272.159,10.493,400.361-92.816,134.446-183.312,122.324-285.8,110.2-59.095-6.991-122.175-13.983-191.985,7.131q-5.681,1.718-11.113,3.645c3.127,95.675,8.008,190.858-86.481,259.882V-790.815Zm536.482-1920h1.039c-.245-.3-.5-.619-.766-.949C-12086.332-2711.449-12086.424-2711.135-12086.517-2710.814Zm-24.018-.575c-.061.124-.124.251-.185.375l.1.2h4.346c-.222-2.807-.374-5.966-.346-9.239A76.782,76.782,0,0,1-12110.534-2711.389Zm-57.353-18.815c3.56,1.591,5.09,3.927,5.715,8.56.5,3.7.134,7.252-.019,10.83h4.267a50.228,50.228,0,0,1,2.791-4.315c-.248-.448-.454-.819-.6-1.083a150.343,150.343,0,0,1-8.362-28.031c-1.086,6.185-7.846,8.48-21.3,23.145-3.128,3.407-6.055,6.906-8.084,9.4.1.171.2.34.309.514a32.863,32.863,0,0,1,3.279-2.241c2.705-1.673,5.185-4.137,8.427-4.518a6.421,6.421,0,0,1,4.5,1.257c1.94-6.863,4.869-13.532,8.778-13.532C-12168.093-2730.217-12167.99-2730.213-12167.887-2730.2Zm-189.389,19.389h5.9c.454-.381.918-.768,1.388-1.156,1.3-1.079,2.642-2.156,3.918-3.054-.272-.5-.5-.9-.66-1.187a101.371,101.371,0,0,1-3.746-10.227A156.094,156.094,0,0,0-12357.275-2710.814Zm-160.465-9.665c-1.137,1.016-2.388,4.82-3.606,9.665H-12505c-.327-.946-.626-1.9-.89-2.851q-.152-.138-.3-.286c-1.845-1.8-4.324-5.283-3.4-7.969a5.327,5.327,0,0,1,.588-1.222C-12512-2722.764-12514.733-2723.165-12517.74-2720.479Zm-19.106,3.819c.825.965,1.079,3.153.736,5.845h2.045c.845-1.978,2.406-2.826,3.86-2.426-.016-.051-.031-.1-.048-.152-1.229-1.587-2.488-3.143-3.886-4.705a36.353,36.353,0,0,0-2.845-2.921C-12536.951-2719.707-12536.913-2718.259-12536.847-2716.659Zm476.835-25.663c1.829,4.772,1.905,10.29,2.156,15.056.2,3.642.292,7.28.355,10.912a5.91,5.91,0,0,1,.729-.756,37.474,37.474,0,0,0,.537-4.239,10.314,10.314,0,0,1,.822-3.546,33.238,33.238,0,0,1-.365-8.3c.2-2.229.622-6.086,3.076-7.8s6.232-1.187,8.8,1.381a8.432,8.432,0,0,1,2.128,3.778c.444-3.9,1.057-8.061,1.886-12.017.146-1.978.311-3.969.492-5.944C-12043-2750.948-12052.548-2744.17-12060.012-2742.322Zm-254.954,19.345a24.576,24.576,0,0,1,2.7-6.8l-1.118-.727C-12314.369-2726.139-12314.976-2722.939-12314.966-2722.977Zm242.086-31.226c.41,3.064.959,6.718,1.766,11.119,1.285,7.007,2.86,13.665,2.927,13.973a35.356,35.356,0,0,1-.7-7.093c-.057-2.756-.521-5.693.121-8.242a6.416,6.416,0,0,1,.225-.724,4.657,4.657,0,0,1,.912-3.543c2.378-3.908,7.33-6.845,9.293-10.855A91.06,91.06,0,0,1-12072.88-2754.2Zm-7.2,24.073a15.254,15.254,0,0,0,1.7,1.013c-.337-.616-.794-1.46-1.327-2.492C-12079.811-2731.137-12079.937-2730.645-12080.084-2730.13Zm-168.906.1c.013.289.028.578.041.867a.009.009,0,0,1,.006,0c2.492-1.051,5.252-1.276,7.716-2.426-.114-1.019-.226-2.045-.324-3.061C-12244.006-2733.061-12246.5-2731.534-12248.99-2730.026Zm-98-50.4a10.548,10.548,0,0,1,.5,1.965,20.253,20.253,0,0,1-.361,7.779,7.1,7.1,0,0,1,.739,6.375,10.473,10.473,0,0,1-1.866,2.969c2.092.81,3.987,2.616,6.067,5.6a71.018,71.018,0,0,1,5.819,10.792c1.984,4.248,3.962,8.483,6.857,12.182-.7-4.724-2.53-18.535-.339-30.029-4.893-6.528-10.82-15.764-10.96-21.777C-12342.073-2783.476-12344.191-2782.272-12347-2780.421Zm141.479,41.6a13.75,13.75,0,0,1,3.664-2.239c.258-.575.521-1.152.794-1.73C-12203.652-2740.579-12205.529-2738.817-12205.517-2738.823Zm-381.98-12.312a1.831,1.831,0,0,0-.095-.686c-.286-.149-.578-.308-.883-.473C-12587.862-2751.726-12587.468-2751.291-12587.5-2751.136Zm36-2.505a12.681,12.681,0,0,1,2.08,1.086,7.129,7.129,0,0,1,.98-1.048c-.234-1.187-.464-2.387-.647-3.515-.111-.165-.226-.33-.34-.5Q-12550.437-2755.613-12551.5-2753.641Zm142.26-3.845c0,.133-.007.263-.007.4,1.429-.73,2.857-1.457,4.3-2.073.1-.041.2-.083.293-.121q.447-.753.933-1.514C-12405.554-2759.683-12407.395-2758.584-12409.236-2757.486Zm-152.331-15.522q.057.1.105.191a21.9,21.9,0,0,1,.924-2.445c-.137-.26-.271-.514-.394-.765C-12561.186-2774.849-12561.4-2773.824-12561.567-2773.008Zm54.031-16.383c-.3.61-.6,1.213-.907,1.819.292,1.457.577,2.848.848,4.115a7.666,7.666,0,0,1,.711-.584c0-.054,0-.108,0-.162-.038-2.019-.3-4.137-.185-6.131C-12507.228-2790.016-12507.384-2789.7-12507.536-2789.391Zm-40.674,3.734c-1.578-3.251-3.778-7.223-4.524-8.553a51.031,51.031,0,0,1-1.886-4.762c-.978,2.823-2.067,6.178-3.2,10.246a12.9,12.9,0,0,1,4.568,1.806c.117.07.337.226.629.438a4.914,4.914,0,0,1,1.146-.133A6.517,6.517,0,0,1-12548.21-2785.657Zm165.236-9.03a52.7,52.7,0,0,1,2.4-6.864,62.828,62.828,0,0,1,.972-9.179c-2.807,2.524-6.251,5.715-10.366,10.09.88,1.533,1.68,3.108,2.448,4.7.016,0,.032,0,.048-.006a5.364,5.364,0,0,1,.676-.041A6.661,6.661,0,0,1-12382.974-2794.687Zm413.838-126.334c.458-.521.905-1.022,1.369-1.54a26.4,26.4,0,0,0,.742-4.877c-.965-.346-1.937-.7-2.892-1.051C-11969.614-2926-11969.364-2923.51-11969.136-2921.021Zm-2.756-20.25a6.116,6.116,0,0,1,2.156.34,7.017,7.017,0,0,0-2.489-1.734C-11972.1-2942.2-11971.993-2941.734-11971.892-2941.271Z" transform="translate(12650.183 3546)" fill="#f7f7f9"/>
</svg>
